<?xml version="1.0" encoding="utf-8"?>
<!-- Generated by IcoMoon.io -->
<!DOCTYPE svg PUBLIC "-//W3C//DTD SVG 1.1//EN" "http://www.w3.org/Graphics/SVG/1.1/DTD/svg11.dtd">
<svg version="1.1" xmlns="http://www.w3.org/2000/svg" xmlns:xlink="http://www.w3.org/1999/xlink" width="16" height="16" viewBox="0 0 16 16">
	<path d="M15.176 9.041c0.045-0.327 0.076-0.658 0.076-0.998 0-0.36-0.035-0.71-0.086-1.056l-2.275-0.293c-0.115-0.426-0.283-0.827-0.498-1.201l1.396-1.808c-0.416-0.551-0.906-1.039-1.459-1.452l-1.807 1.391c-0.373-0.215-0.774-0.383-1.2-0.499l-0.292-2.252c-0.338-0.048-0.677-0.081-1.029-0.081s-0.694 0.033-1.032 0.082l-0.291 2.251c-0.426 0.116-0.826 0.284-1.2 0.499l-1.805-1.391c-0.552 0.413-1.044 0.901-1.459 1.452l1.395 1.808c-0.215 0.374-0.383 0.774-0.499 1.2l-2.276 0.294c-0.050 0.346-0.085 0.696-0.085 1.056 0 0.34 0.031 0.671 0.077 0.998l2.285 0.295c0.115 0.426 0.284 0.826 0.499 1.2l-1.417 1.836c0.411 0.55 0.896 1.038 1.443 1.452l1.842-1.42c0.374 0.215 0.774 0.383 1.2 0.498l0.298 2.311c0.337 0.047 0.677 0.080 1.025 0.080s0.688-0.033 1.021-0.080l0.299-2.311c0.426-0.115 0.826-0.283 1.201-0.498l1.842 1.42c0.547-0.414 1.031-0.902 1.443-1.452l-1.416-1.837c0.215-0.373 0.383-0.773 0.498-1.199l2.286-0.295zM8.002 10.555c-1.406 0-2.543-1.137-2.543-2.541 0-1.402 1.137-2.541 2.543-2.541 1.402 0 2.541 1.138 2.541 2.541 0 1.404-1.139 2.541-2.541 2.541z" fill="#ffffff" />
</svg>
