<?xml version="1.0" encoding="utf-8"?>
<!-- Generated by IcoMoon.io -->
<!DOCTYPE svg PUBLIC "-//W3C//DTD SVG 1.1//EN" "http://www.w3.org/Graphics/SVG/1.1/DTD/svg11.dtd">
<svg version="1.1" xmlns="http://www.w3.org/2000/svg" xmlns:xlink="http://www.w3.org/1999/xlink" width="16" height="16" viewBox="0 0 16 16">
	<path d="M9.502 2.529c0-0.275-0.225-0.5-0.5-0.5h-2.002c-0.275 0-0.5 0.225-0.5 0.5v3.5c0 0.275-0.225 0.5-0.5 0.5h-3.5c-0.275 0-0.5 0.225-0.5 0.5v2c0 0.275 0.225 0.5 0.5 0.5h3.5c0.275 0 0.5 0.225 0.5 0.5v3.5c0 0.275 0.225 0.5 0.5 0.5h2.002c0.275 0 0.5-0.225 0.5-0.5v-3.5c0-0.275 0.225-0.5 0.5-0.5h3.5c0.275 0 0.5-0.225 0.5-0.5v-2c0-0.275-0.225-0.5-0.5-0.5h-3.5c-0.275 0-0.5-0.225-0.5-0.5v-3.5z" fill="#ffffff" />
</svg>
