<svg xmlns="http://www.w3.org/2000/svg" viewBox="0 0 24 28"><path d="M12.92 6.47c2.91.12 5.72.79 8.31 1.95L24 2.55A29.195 29.195 0 0 0 12 0C7.72 0 3.65.91 0 2.55l2.78 5.89 2.77 1.24c-.62.21-1.24.45-1.85.72l2.32 4.91c1.49-.43 3.01.35 3.75 1.1-.97.18-1.92.47-2.82.87L12 28l5.05-10.72c-.7-.32-1.44-.56-2.21-.74.01-.17.02-.34.02-.51 0-.59-.07-1.18-.19-1.74 1.15.21 2.26.56 3.31 1.02l2.31-4.9c-1.12-.5-2.29-.9-3.5-1.2l-6.08-2.72c.42-.02.84-.03 1.26-.03.32 0 .63 0 .95.01z"/><path fill="#546683" d="M9.15 14.32c.94-.19 1.9-.29 2.87-.29.39 0 .78.02 1.17.05.18.62.28 1.27.28 1.94 0 .09-.01.18-.01.27-.48-.06-.96-.09-1.44-.09-.2 0-.41.01-.61.02a5.504 5.504 0 0 0-2.26-1.9z"/><path fill="#71845c" d="M12.13 8.63h-.16c-1.47 0-2.92.16-4.33.47L4.55 7.71c1.13-.4 2.3-.7 3.48-.91l4.1 1.83z"/><path fill="#754c29" d="M12 24.71l-3.15-6.67a10.894 10.894 0 0 1 4.55-.38c.6.08 1.18.2 1.75.37L12 24.71z"/><path fill="#1b75bc" d="M17.27 13.53a15.78 15.78 0 0 0-3.21-.75c-.67-.09-1.36-.13-2.04-.13-1.79 0-3.59.31-5.28.89L5.6 11.11C7.63 10.38 9.77 10 11.98 10c.26 0 .53.01.79.02 1.94.08 3.83.45 5.64 1.1l-1.14 2.41z"/><path fill="#8dc63f" d="M12 1.37c3.51 0 6.9.63 10.11 1.88l-1.6 3.39c-2.41-.92-4.95-1.44-7.55-1.54-.33-.01-.66-.02-.99-.02-2.94 0-5.8.52-8.5 1.56L1.88 3.26C5.1 2.01 8.5 1.37 12 1.37z"/><path fill="#cfe5ae" d="M8.86 1.55c-1.58.18-3.12.48-4.63.91l1.23 3.52c1.27-.36 2.57-.61 3.89-.75l-.49-3.68z"/><path fill="#80a0d3" d="M10.02 10.11c-.99.1-1.97.28-2.93.54l.88 2.53c.79-.2 1.59-.35 2.4-.43l-.35-2.64z"/><path fill="#a38267" d="M11.04 17.63c-.48.04-.96.12-1.43.22l2.4 6.86-.97-7.08z"/></svg>
