<?xml version="1.0" encoding="utf-8"?>
<!-- Generator: Adobe Illustrator 18.0.0, SVG Export Plug-In . SVG Version: 6.00 Build 0)  -->
<!DOCTYPE svg PUBLIC "-//W3C//DTD SVG 1.1//EN" "http://www.w3.org/Graphics/SVG/1.1/DTD/svg11.dtd">
<svg version="1.1" id="Calque_1" xmlns="http://www.w3.org/2000/svg" xmlns:xlink="http://www.w3.org/1999/xlink" x="0px" y="0px"
	 viewBox="0 0 841.9 595.3" enable-background="new 0 0 841.9 595.3" xml:space="preserve">
<g>
	<path fill="#414042" d="M684.6,25.9c-9.7-9.7-22.6-9.7-32.4,0s-9.7,22.6,0,32.4c58.2,61.5,90.6,148.8,90.6,242.6
		S710.5,482,652.3,543.5c-9.7,9.7-9.7,22.6,0,32.4c3.2,3.2,9.7,6.5,16.2,6.5s12.9-3.2,16.2-6.5c64.7-67.9,103.5-168.2,103.5-275
		S749.3,93.8,684.6,25.9z"/>
	<path fill="#414042" d="M607,93.8c-9.7-9.7-22.6-9.7-32.4,0c-9.7,9.7-9.7,22.6,0,32.4c42.1,42.1,67.9,103.5,67.9,171.5
		S616.7,427,574.6,469.1c-9.7,9.7-9.7,22.6,0,32.4c3.2,3.2,9.7,6.5,16.2,6.5s12.9-3.2,16.2-6.5c51.8-48.5,80.9-122.9,80.9-203.8
		C687.9,220,658.7,145.6,607,93.8z"/>
	<path fill="#414042" d="M529.3,165c-9.7-6.5-25.9-6.5-32.4,3.2c-6.5,9.7-6.5,25.9,3.2,32.4c25.9,22.6,42.1,58.2,42.1,97.1
		s-16.2,74.4-42.1,97.1c-9.7,6.5-9.7,22.6-3.2,32.4c3.2,6.5,9.7,9.7,16.2,9.7c6.5,0,9.7-3.2,16.2-6.5
		c35.6-29.1,58.2-80.9,58.2-132.6S564.9,194.1,529.3,165z"/>
	<path fill="#414042" d="M387,3.2c-6.5-3.2-16.2-3.2-25.9,0L173.5,145.6H76.4c-12.9,0-22.6,9.7-22.6,22.6V427
		c0,12.9,9.7,22.6,22.6,22.6h97.1l187.6,139.1c3.2,3.2,9.7,3.2,12.9,3.2c3.2,0,6.5,0,9.7-3.2c6.5-3.2,12.9-12.9,12.9-19.4v-550
		C399.9,12.9,393.4,6.5,387,3.2z M354.6,527.3L196.1,410.9c-3.2-3.2-9.7-3.2-12.9-3.2H99V190.9h84.1c6.5,0,9.7,0,12.9-3.2
		L354.6,71.2V527.3z"/>
</g>
</svg>
