<?xml version="1.0" encoding="utf-8"?>
<!-- Generator: Adobe Illustrator 18.0.0, SVG Export Plug-In . SVG Version: 6.00 Build 0)  -->
<!DOCTYPE svg PUBLIC "-//W3C//DTD SVG 1.1//EN" "http://www.w3.org/Graphics/SVG/1.1/DTD/svg11.dtd">
<svg version="1.1" id="Calque_1" xmlns="http://www.w3.org/2000/svg" xmlns:xlink="http://www.w3.org/1999/xlink" x="0px" y="0px"
	 viewBox="0 0 24.4 19.1" enable-background="new 0 0 24.4 19.1" xml:space="preserve">
<path fill="#404041" d="M23.5,0l-4.6,0.9c-0.4,0.1-0.6,0.4-0.6,0.7v3.1H0.8c-0.3,0-0.5,0.2-0.7,0.4C0,5.4,0,5.7,0.1,5.9l4.2,6.2
	c0.1,0.2,0.4,0.3,0.6,0.3h12.4l0,1.7H6.9c0,0,0,0,0,0c0,0,0,0-0.1,0c-1.3,0-2.4,1.1-2.4,2.5s1.1,2.5,2.4,2.5c1.3,0,2.4-1.1,2.4-2.5
	c0-0.3-0.1-0.7-0.2-1h6.3c-0.1,0.3-0.2,0.6-0.2,1c0,1.4,1.1,2.5,2.4,2.5c1.3,0,2.4-1.1,2.4-2.5c0-0.8-0.4-1.6-1-2l0-2.2h0.1
	c0.4,0,0.8-0.3,0.8-0.8V5.5c0,0,0,0,0-0.1c0,0,0,0,0-0.1V2.3l4-0.8c0.4-0.1,0.7-0.5,0.6-0.9C24.3,0.2,23.9-0.1,23.5,0z M6.8,17.6
	c-0.5,0-0.9-0.4-0.9-1s0.4-1,0.9-1c0.5,0,0.9,0.4,0.9,1S7.3,17.6,6.8,17.6z M17.5,17.6c-0.5,0-0.9-0.4-0.9-1s0.4-1,0.9-1
	c0.5,0,0.9,0.4,0.9,1S18,17.6,17.5,17.6z M2.2,6.3h16.1v4.6H5.4L2.2,6.3z"/>
</svg>
