<?xml version="1.0" encoding="utf-8"?>
<!-- Generator: Adobe Illustrator 18.0.0, SVG Export Plug-In . SVG Version: 6.00 Build 0)  -->
<!DOCTYPE svg PUBLIC "-//W3C//DTD SVG 1.1//EN" "http://www.w3.org/Graphics/SVG/1.1/DTD/svg11.dtd">
<svg version="1.1" id="Calque_1" xmlns="http://www.w3.org/2000/svg" xmlns:xlink="http://www.w3.org/1999/xlink" x="0px" y="0px"
	 viewBox="413.9 284.1 18.2 27.1" enable-background="new 413.9 284.1 18.2 27.1" xml:space="preserve">
<g id="certificate_5_">
	<g>
		<polygon fill="#35B459" points="427.8,301.5 426.1,304.6 423,302.7 420,304.6 418.7,301.5 418,301.5 418,311.2 423.5,305.7 
			429,311.2 429,301.5 		"/>
		<path fill="#35B459" d="M430.7,293.2l1.5-2.4l-2.5-1.4l0-2.8l-2.8,0l-1.4-2.5l-2.4,1.5l-2.4-1.5l-1.4,2.5l-2.8,0l0,2.8l-2.5,1.4
			l1.5,2.4l-1.5,2.4l2.5,1.4l0,2.8l2.8,0l1.4,2.5l2.4-1.5l2.4,1.5l1.4-2.5l2.8,0l0-2.8l2.5-1.4L430.7,293.2z M422.9,289.5l-1.1-0.7
			l-0.6,1.2l-1.4,0l0,1.4l-1.2,0.7l0.7,1l-2.6,0.7l0.5-0.7l-1.1-1.7l1.9-1l0-2.1l2.1,0l1-1.9l1.7,1.1l0.7-0.5L422.9,289.5z"/>
	</g>
	<path opacity="0.5" fill="#35B459" d="M416.8,293.7l0.5-0.7l-1.1-1.7l1.9-1l0-2.1l2.1,0l1-1.9l1.7,1.1l0.7-0.5l-0.7,2.6l-1.1-0.7
		l-0.6,1.2l-1.4,0l0,1.4l-1.2,0.7l0.7,1L416.8,293.7z"/>
</g>
</svg>
