<?xml version="1.0" encoding="utf-8"?>
<!-- Generator: Adobe Illustrator 18.0.0, SVG Export Plug-In . SVG Version: 6.00 Build 0)  -->
<!DOCTYPE svg PUBLIC "-//W3C//DTD SVG 1.1//EN" "http://www.w3.org/Graphics/SVG/1.1/DTD/svg11.dtd">
<svg version="1.1" id="Calque_1" xmlns="http://www.w3.org/2000/svg" xmlns:xlink="http://www.w3.org/1999/xlink" x="0px" y="0px"
	 viewBox="410.6 288.3 19.8 21.2" enable-background="new 410.6 288.3 19.8 21.2" xml:space="preserve">
<g>
	<path fill="#FFFFFF" d="M429.8,304.1c-0.4,0-0.7,0.3-0.7,0.7v3.4h-17.2v-3.4c0-0.4-0.3-0.7-0.7-0.7c-0.4,0-0.7,0.3-0.7,0.7v4.1
		c0,0.4,0.3,0.7,0.7,0.7h18.5c0.4,0,0.7-0.3,0.7-0.7v-4.1C430.4,304.4,430.1,304.1,429.8,304.1z"/>
	<path fill="#FFFFFF" d="M420.1,305.2C420.1,305.2,420.1,305.2,420.1,305.2c0.1,0.1,0.2,0.1,0.2,0.1c0.1,0,0.2,0.1,0.2,0.1
		c0.1,0,0.2,0,0.3-0.1c0,0,0.1-0.1,0.1-0.1c0,0,0.1,0,0.1-0.1l5.3-5.1c0.3-0.3,0.3-0.7,0-0.9c-0.3-0.3-0.7-0.3-0.9,0l-4.2,4.1v-14.2
		c0-0.4-0.3-0.7-0.7-0.7c-0.4,0-0.7,0.3-0.7,0.7v14.2l-4.2-4.1c-0.3-0.3-0.7-0.2-0.9,0c-0.3,0.3-0.2,0.7,0,0.9L420.1,305.2z"/>
</g>
</svg>
