<?xml version="1.0" encoding="utf-8"?>
<!-- Generator: Adobe Illustrator 18.0.0, SVG Export Plug-In . SVG Version: 6.00 Build 0)  -->
<!DOCTYPE svg PUBLIC "-//W3C//DTD SVG 1.1//EN" "http://www.w3.org/Graphics/SVG/1.1/DTD/svg11.dtd">
<svg version="1.1" id="Calque_1" xmlns="http://www.w3.org/2000/svg" xmlns:xlink="http://www.w3.org/1999/xlink" x="0px" y="0px"
	 viewBox="0 0 841.9 595.3" enable-background="new 0 0 841.9 595.3" xml:space="preserve">
<g id="folder_x5F_open_2_">
	<path fill="#414042" d="M140.7,181c-6.5,15.3-122.1,303.1-122.1,303.1V80.7c0-15.3,13.1-26.2,26.2-26.2h37.1l8.7-28.3
		C95,10.9,112.4,0,127.7,0h135.2c15.3,0,30.5,10.9,34.9,26.2l8.7,28.3h252.9c15.3,0,26.2,13.1,26.2,26.2v80.7H166.9
		C160.4,161.4,147.3,165.7,140.7,181z M803.6,189.7H208.3c-15.3,0-32.7,10.9-37.1,24L29.5,569.1c-6.5,13.1,2.2,26.2,17.4,26.2h595.3
		c15.3,0,30.5-10.9,37.1-26.2l141.7-355.4C825.4,200.6,818.9,189.7,803.6,189.7z"/>
</g>
</svg>
