<?xml version="1.0" encoding="utf-8"?>
<!-- Generator: Adobe Illustrator 18.0.0, SVG Export Plug-In . SVG Version: 6.00 Build 0)  -->
<!DOCTYPE svg PUBLIC "-//W3C//DTD SVG 1.1//EN" "http://www.w3.org/Graphics/SVG/1.1/DTD/svg11.dtd">
<svg version="1.1" id="Calque_1" xmlns="http://www.w3.org/2000/svg" xmlns:xlink="http://www.w3.org/1999/xlink" x="0px" y="0px"
	 viewBox="0 0 841.9 595.3" enable-background="new 0 0 841.9 595.3" xml:space="preserve">
<g>
	<ellipse fill="#FFFFFF" cx="420.9" cy="375.4" rx="92.3" ry="94.8"/>
	<polygon fill="#FFFFFF" points="300.9,549.8 300.9,515.7 312.3,489.1 329.9,476.5 410.8,473.9 479.1,473.9 509.4,479 522.1,494.2 
		528.4,530.8 528.4,551 	"/>
	<polygon fill="#414042" points="329.9,361.5 332.5,334.9 350.2,305.9 384.3,280.6 433.6,275.5 466.4,288.2 487.9,310.9 
		500.6,326.1 500.6,331.1 476.6,341.2 447.5,351.4 415.9,358.9 389.3,357.7 366.6,348.8 347.6,351.4 	"/>
	<g>
		<g>
			<defs>
				<path id="SVGID_1_" d="M322.4,365.3c0-53.1,43-96.1,96.1-96.1s96.1,43,96.1,96.1v19c0,53.1-43,96.1-96.1,96.1
					s-96.1-43-96.1-96.1V365.3z"/>
			</defs>
			<clipPath id="SVGID_2_">
				<use xlink:href="#SVGID_1_"  overflow="visible"/>
			</clipPath>
			<path clip-path="url(#SVGID_2_)" fill="#414042" d="M418.4,492.9c-59.4,0-108.7-49.3-108.7-108.7v-19
				c0-59.4,49.3-108.7,108.7-108.7s108.7,49.3,108.7,108.7v19C525.8,443.6,477.8,492.9,418.4,492.9z M418.4,281.8
				c-45.5,0-83.4,36.7-83.4,83.4v19c0,45.5,36.7,83.4,83.4,83.4c45.5,0,83.4-36.7,83.4-83.4v-19
				C500.6,318.5,463.9,281.8,418.4,281.8z"/>
		</g>
	</g>
	<path fill="#414042" d="M328.7,371.6c-1.3,0-3.8,0-5.1-1.3c-2.5-2.5-2.5-6.3,0-8.8c1.3-1.3,25.3-25.3,64.5-11.4
		c25.3,8.8,73.3-8.8,96.1-17.7c10.1-3.8,13.9-5.1,16.4-5.1c3.8,0,6.3,2.5,6.3,6.3c0,3.8-2.5,6.3-6.3,6.3c-1.3,0-6.3,2.5-11.4,3.8
		c-26.5,10.1-75.8,27.8-104.9,17.7c-30.3-11.4-50.6,7.6-50.6,7.6C331.2,370.3,329.9,371.6,328.7,371.6z"/>
	<g>
		<g>
			<defs>
				<path id="SVGID_3_" d="M297.1,511.9c0-25.3,20.2-44.2,44.2-44.2h146.6c25.3,0,44.2,20.2,44.2,44.2v44.2H297.1V511.9z"/>
			</defs>
			<clipPath id="SVGID_4_">
				<use xlink:href="#SVGID_3_"  overflow="visible"/>
			</clipPath>
			<path clip-path="url(#SVGID_4_)" fill="#414042" d="M533.4,568.7H297.1c-7.6,0-12.6-6.3-12.6-12.6v-44.2
				c0-31.6,25.3-56.9,56.9-56.9h146.6c31.6,0,56.9,25.3,56.9,56.9v44.2C546.1,563.7,539.7,568.7,533.4,568.7z M309.7,543.5h211.1
				v-31.6c0-17.7-13.9-31.6-31.6-31.6H341.3c-17.7,0-31.6,13.9-31.6,31.6V543.5z"/>
		</g>
	</g>
	<path fill="#414042" d="M418.4,530.8c-2.5,0-3.8-1.3-5.1-2.5l-37.9-50.6c-1.3-2.5-1.3-5.1,0-6.3c1.3-2.5,3.8-3.8,6.3-3.8h77.1
		c2.5,0,5.1,1.3,6.3,3.8c1.3,2.5,1.3,5.1,0,6.3l-37.9,50.6C422.2,529.6,419.7,530.8,418.4,530.8z M391.9,479l25.3,34.1l25.3-34.1
		H391.9z"/>
	<ellipse fill="#FFFFFF" cx="566.3" cy="413.3" rx="92.3" ry="94.8"/>
	<polygon fill="#FFFFFF" points="446.2,589 446.2,554.8 457.6,527 475.3,515.7 554.9,513.1 623.2,513.1 654.8,518.2 667.4,533.4 
		673.7,570 673.7,589 	"/>
	<polygon fill="#414042" points="475.3,400.6 477.8,374.1 495.5,345 528.4,319.8 578.9,314.7 611.8,327.3 633.3,350.1 645.9,365.3 
		645.9,370.3 620.6,380.4 592.8,390.5 560,398.1 534.7,395.6 511.9,388 491.7,390.5 	"/>
	<g>
		<g>
			<defs>
				<path id="SVGID_5_" d="M467.7,403.2c0-53.1,43-96.1,96.1-96.1c53.1,0,96.1,43,96.1,96.1v19c0,53.1-43,96.1-96.1,96.1
					c-53.1,0-96.1-43-96.1-96.1V403.2z"/>
			</defs>
			<clipPath id="SVGID_6_">
				<use xlink:href="#SVGID_5_"  overflow="visible"/>
			</clipPath>
			<path clip-path="url(#SVGID_6_)" fill="#414042" d="M562.5,530.8c-59.4,0-108.7-49.3-108.7-108.7v-19
				c0-59.4,48-108.7,108.7-108.7c59.4,0,108.7,49.3,108.7,108.7v19C671.2,482.8,623.2,530.8,562.5,530.8z M562.5,321
				c-45.5,0-83.4,36.7-83.4,83.4v19c0,45.5,36.7,83.4,83.4,83.4c45.5,0,83.4-36.7,83.4-83.4v-19C645.9,357.7,609.3,321,562.5,321z"
				/>
		</g>
	</g>
	<path fill="#414042" d="M474,409.5c-1.3,0-3.8,0-5.1-1.3c-2.5-2.5-2.5-6.3,0-8.8c1.3-1.3,25.3-25.3,64.5-11.4
		c25.3,8.8,73.3-8.8,96.1-17.7c10.1-3.8,13.9-5.1,16.4-5.1c3.8,0,6.3,2.5,6.3,6.3c0,3.8-2.5,6.3-6.3,6.3c-1.3,0-6.3,2.5-11.4,3.8
		c-26.5,10.1-75.8,27.8-104.9,17.7c-30.3-11.4-50.6,7.6-50.6,7.6C476.6,409.5,475.3,409.5,474,409.5z"/>
	<g>
		<g>
			<defs>
				<path id="SVGID_7_" d="M441.2,551c0-25.3,20.2-44.2,44.2-44.2H632c25.3,0,44.2,20.2,44.2,44.2v44.2H441.2V551z"/>
			</defs>
			<clipPath id="SVGID_8_">
				<use xlink:href="#SVGID_7_"  overflow="visible"/>
			</clipPath>
			<path clip-path="url(#SVGID_8_)" fill="#414042" d="M677.5,607.9H441.2c-7.6,0-12.6-6.3-12.6-12.6V551
				c0-31.6,25.3-56.9,56.9-56.9H632c31.6,0,56.9,25.3,56.9,56.9v44.2C690.1,601.6,685.1,607.9,677.5,607.9z M455.1,582.6h211.1V551
				c0-17.7-13.9-31.6-31.6-31.6H486.7c-17.7,0-31.6,13.9-31.6,31.6V582.6z"/>
		</g>
	</g>
	<path fill="#414042" d="M562.5,570c-2.5,0-3.8-1.3-5.1-2.5l-37.9-50.6c-1.3-2.5-1.3-5.1,0-6.3c1.3-2.5,3.8-3.8,6.3-3.8h77.1
		c2.5,0,5.1,1.3,6.3,3.8c1.3,2.5,1.3,5.1,0,6.3l-37.9,50.6C566.3,568.7,565,570,562.5,570z M537.2,518.2l25.3,34.1l25.3-34.1H537.2z
		"/>
	<ellipse fill="#FFFFFF" cx="288.2" cy="413.3" rx="92.3" ry="94.8"/>
	<polygon fill="#FFFFFF" points="169.4,589 169.4,554.8 179.5,527 198.5,515.7 278.1,513.1 346.4,513.1 376.7,518.2 389.3,533.4 
		396.9,570 396.9,589 	"/>
	<polygon fill="#414042" points="198.5,400.6 199.8,374.1 218.7,345 251.6,319.8 302.1,314.7 335,327.3 355.2,350.1 369.1,365.3 
		369.1,370.3 343.8,380.4 314.8,390.5 283.2,398.1 257.9,395.6 233.9,388 214.9,390.5 	"/>
	<g>
		<g>
			<defs>
				<path id="SVGID_9_" d="M189.7,403.2c0-53.1,43-96.1,96.1-96.1s96.1,43,96.1,96.1v19c0,53.1-43,96.1-96.1,96.1
					s-96.1-43-96.1-94.8V403.2z"/>
			</defs>
			<clipPath id="SVGID_10_">
				<use xlink:href="#SVGID_9_"  overflow="visible"/>
			</clipPath>
			<path clip-path="url(#SVGID_10_)" fill="#414042" d="M285.7,530.8c-59.4,0-108.7-48-108.7-107.4v-19c0-59.4,48-108.7,108.7-108.7
				c59.4,0,108.7,49.3,108.7,108.7v19C394.4,482.8,345.1,530.8,285.7,530.8z M285.7,321c-45.5,0-83.4,36.7-83.4,82.2v19
				c0,46.8,37.9,83.4,83.4,83.4s83.4-36.7,83.4-83.4v-19C369.1,357.7,331.2,321,285.7,321z"/>
		</g>
	</g>
	<path fill="#414042" d="M196,409.5c-1.3,0-3.8,0-5.1-1.3c-2.5-2.5-2.5-6.3,0-8.8c1.3-1.3,25.3-25.3,64.5-11.4
		c25.3,8.8,73.3-8.8,96.1-17.7c10.1-3.8,13.9-5.1,16.4-5.1c3.8,0,6.3,2.5,6.3,6.3c0,3.8-2.5,6.3-6.3,6.3c-1.3,0-6.3,2.5-11.4,3.8
		c-26.5,10.1-75.8,27.8-104.9,17.7C221.3,388,201,407,201,407C199.8,409.5,198.5,409.5,196,409.5z"/>
	<g>
		<g>
			<defs>
				<path id="SVGID_11_" d="M164.4,551c0-25.3,20.2-44.2,44.2-44.2h146.6c25.3,0,44.2,20.2,44.2,44.2v44.2H164.4V551z"/>
			</defs>
			<clipPath id="SVGID_12_">
				<use xlink:href="#SVGID_11_"  overflow="visible"/>
			</clipPath>
			<path clip-path="url(#SVGID_12_)" fill="#414042" d="M400.7,607.9H164.4c-7.6,0-12.6-6.3-12.6-12.6V551
				c0-32.9,25.3-58.1,56.9-58.1h146.6c31.6,0,56.9,25.3,56.9,56.9V594C413.4,601.6,407,607.9,400.7,607.9z M177,582.6h211.1V551
				c0-17.7-13.9-31.6-31.6-31.6H208.6c-17.7-1.3-31.6,13.9-31.6,31.6V582.6z"/>
		</g>
	</g>
	<path fill="#414042" d="M285.7,570c-2.5,0-3.8-1.3-5.1-2.5l-37.9-50.6c-1.3-2.5-1.3-5.1,0-6.3c0-3.8,2.5-5.1,5.1-5.1h77.1
		c2.5,0,5.1,1.3,6.3,3.8c1.3,2.5,1.3,5.1,0,6.3l-37.9,50.6C289.5,568.7,288.2,570,285.7,570z M260.4,518.2l25.3,34.1l25.3-34.1
		H260.4z"/>
	<path fill="#FFFFFF" stroke="#414042" stroke-linecap="round" stroke-linejoin="round" stroke-miterlimit="10" d="M432.3,257.8
		c-8.8,1.3-17.7,2.5-27.8,2.5c-16.4,0-43-3.8-56.9-7.6c-10.1-2.5-22.7,26.5-49.3,21.5c0,0,24-31.6,6.3-43
		c-36.7-22.7-59.4-59.4-59.4-98.6C244,63.2,316,6.3,404.5,6.3s159.2,56.9,159.2,126.4"/>
	<path fill="#FFFFFF" stroke="#414042" stroke-linecap="round" stroke-linejoin="round" stroke-miterlimit="10" d="M367.9,180.7
		c0,46.8,48,84.7,106.2,84.7c11.4,0,27.8-2.5,37.9-5.1c6.3-1.3,15.2,17.7,32.9,13.9c0,0-16.4-21.5-5.1-29.1
		c24-15.2,39.2-39.2,39.2-65.7c0-46.8-48-84.7-106.2-84.7C414.6,96.1,367.9,134,367.9,180.7z"/>
</g>
</svg>
