<?xml version="1.0" encoding="utf-8"?>
<!-- Generator: Adobe Illustrator 18.0.0, SVG Export Plug-In . SVG Version: 6.00 Build 0)  -->
<!DOCTYPE svg PUBLIC "-//W3C//DTD SVG 1.1//EN" "http://www.w3.org/Graphics/SVG/1.1/DTD/svg11.dtd">
<svg version="1.1" id="Calque_1" xmlns="http://www.w3.org/2000/svg" xmlns:xlink="http://www.w3.org/1999/xlink" x="0px" y="0px"
	 viewBox="0 0 841.9 595.3" enable-background="new 0 0 841.9 595.3" xml:space="preserve">
<g>
	<path fill="#414042" d="M429,146.8c-2.7-2.7-6.7-2.7-9.3,0L235.4,317.7c-1.3,1.3-2.7,2.7-2.7,5.3l-1.3,266.9c0,1.3,1.3,4,1.3,4
		c1.3,1.3,2.7,1.3,4,1.3h130.8c4,0,6.7-2.7,6.7-6.7V448.5h100.1v141.5c0,4,2.7,6.7,6.7,6.7h128.1c4,0,6.7-2.7,6.7-6.7V329.7
		c0-1.3-1.3-4-2.7-5.3L429,146.8z"/>
	<path fill="#414042" d="M691.9,256.3L590.5,156.2l-2.7-129.5c0-6.7-5.3-13.3-13.3-13.3h-44c-6.7,0-13.3,5.3-13.3,13.3l-1.3,64.1
		L429,4c-1.3-2.7-5.3-4-8-4c-2.7,0-6.7,1.3-9.3,4L150,257.6c-4,4-5.3,9.3-2.7,14.7c1.3,5.3,6.7,8,12,8h54.7c2.7,0,6.7-1.3,8-2.7
		L423.6,96.1l197.5,178.9c2.7,2.7,5.3,4,9.3,4h52.1c5.3,0,10.7-2.7,12-8C695.9,265.6,694.6,260.3,691.9,256.3z"/>
</g>
</svg>
