<?xml version="1.0" encoding="utf-8"?>
<!-- Generator: Adobe Illustrator 18.0.0, SVG Export Plug-In . SVG Version: 6.00 Build 0)  -->
<!DOCTYPE svg PUBLIC "-//W3C//DTD SVG 1.1//EN" "http://www.w3.org/Graphics/SVG/1.1/DTD/svg11.dtd">
<svg version="1.1" id="Calque_1" xmlns="http://www.w3.org/2000/svg" xmlns:xlink="http://www.w3.org/1999/xlink" x="0px" y="0px"
	 width="40.5px" height="36.9px" viewBox="0 0 40.5 36.9" enable-background="new 0 0 40.5 36.9" xml:space="preserve">
<g>
	<path fill="#FFFFFF" d="M10.8,11.6H4.5V5.4h6.3V11.6z M5.2,11h5V6h-5V11z"/>
	<g>
		<rect x="13.9" y="6" opacity="0.3" fill="#FFFFFF" width="12" height="2"/>
	</g>
	<g>
		<rect x="13.9" y="9" opacity="0.3" fill="#FFFFFF" width="9" height="2"/>
	</g>
</g>
<g>
	<path fill="#FFFFFF" d="M10.8,21.5H4.5v-6.3h6.3V21.5z M5.2,20.9h5v-5h-5V20.9z"/>
	<g>
		<rect x="13.9" y="16" opacity="0.3" fill="#FFFFFF" width="12" height="2"/>
	</g>
	<g>
		<rect x="13.9" y="19" opacity="0.3" fill="#FFFFFF" width="9" height="2"/>
	</g>
</g>
<g>
	<path fill="#FFFFFF" d="M10.8,31.3H4.5V25h6.3V31.3z M5.2,30.7h5v-5h-5V30.7z"/>
	<g>
		<rect x="13.9" y="26" opacity="0.3" fill="#FFFFFF" width="12" height="2"/>
	</g>
	<g>
		<rect x="13.9" y="29" opacity="0.3" fill="#FFFFFF" width="9" height="2"/>
	</g>
</g>
<g id="pencil_1_">
	<path id="pencil_2_" fill="#FFFFFF" d="M27.1,20.8l-3.4-3.4L34.4,6.7l3.4,3.4L27.1,20.8z M25.7,22c0.2-0.1,0.3-0.3,0.1-0.5L23,18.7
		c-0.2-0.2-0.4-0.1-0.5,0.1l-1.8,4.7c-0.1,0.2,0,0.3,0.2,0.2L25.7,22z M40.5,6.6L37.9,4c-0.2-0.2-0.6-0.2-0.9,0l-0.4,0.4l-0.9,0.8
		l-0.4,0.4l0.4,0.4l2.5,2.5l0.4,0.4l0.4-0.4L40,7.8l0.4-0.4C40.7,7.2,40.7,6.8,40.5,6.6z"/>
</g>
<path fill="#FFFFFF" d="M30.1,36.9h-30V0h30V36.9z M2.7,34.4h24.9V2.5H2.7V34.4z"/>
</svg>
