<?xml version="1.0" encoding="utf-8"?>
<!-- Generator: Adobe Illustrator 18.0.0, SVG Export Plug-In . SVG Version: 6.00 Build 0)  -->
<!DOCTYPE svg PUBLIC "-//W3C//DTD SVG 1.1//EN" "http://www.w3.org/Graphics/SVG/1.1/DTD/svg11.dtd">
<svg version="1.1" id="Calque_1" xmlns="http://www.w3.org/2000/svg" xmlns:xlink="http://www.w3.org/1999/xlink" x="0px" y="0px"
	 viewBox="0 0 841.9 595.3" enable-background="new 0 0 841.9 595.3" xml:space="preserve">
<g>
	
		<linearGradient id="SVGID_1_" gradientUnits="userSpaceOnUse" x1="4.3" y1="580.1801" x2="35.8468" y2="580.1801" gradientTransform="matrix(19.7113 0 0 -19.7113 25.7343 11733.7178)">
		<stop  offset="0" style="stop-color:#47494C"/>
		<stop  offset="1" style="stop-color:#414345"/>
	</linearGradient>
	<path fill="url(#SVGID_1_)" d="M711.7,84.8H132.2c-11.8,0-21.7,9.9-21.7,21.7v382.4c0,11.8,9.9,21.7,21.7,21.7h579.5
		c11.8,0,21.7-9.9,21.7-21.7V106.4C731.4,94.6,723.5,84.8,711.7,84.8z M213,388.3l-17.7-128.1l35.5-5.9l17.7,128.1L213,388.3z
		 M368.7,348.9l-27.6,3.9l-5.9-35.5l-33.5,3.9l-2-25.6l33.5-3.9l-5.9-35.5l27.6-3.9l5.9,35.5l33.5-3.9l3.9,25.6l-33.5,3.9
		L368.7,348.9z M502.7,337.1c-7.9,9.9-17.7,15.8-31.5,17.7c-7.9,2-13.8,0-21.7-2l-5.9-35.5c5.9,2,11.8,3.9,15.8,3.9
		c3.9,0,7.9-2,9.9-5.9s3.9-7.9,2-11.8c0-5.9-3.9-9.9-7.9-11.8c-3.9-2-11.8-3.9-17.7-2l5.9-25.6l-13.8,2l-5.9-37.5l67-11.8L485,268.1
		c7.9,3.9,13.8,7.9,17.7,13.8c3.9,5.9,7.9,11.8,7.9,19.7C514.6,315.4,510.6,327.2,502.7,337.1z M548.1,244.4l94.6-13.8l3.9,23.7
		L552,268.1L548.1,244.4z M556,301.6l-3.9-23.7l94.6-13.8l3.9,23.7L556,301.6z"/>
	
		<linearGradient id="SVGID_2_" gradientUnits="userSpaceOnUse" x1="0" y1="580.1801" x2="40.1484" y2="580.1801" gradientTransform="matrix(19.7113 0 0 -19.7113 25.7343 11733.7178)">
		<stop  offset="0" style="stop-color:#47494C"/>
		<stop  offset="1" style="stop-color:#414345"/>
	</linearGradient>
	<path fill="url(#SVGID_2_)" d="M737.3,0H104.6C61.2,0,25.7,35.5,25.7,80.8v433.6c0,45.3,35.5,80.8,78.8,80.8h632.7
		c43.4,0,78.8-35.5,78.8-80.8V80.8C816.2,35.5,782.6,0,737.3,0z M776.7,510.5c0,23.7-19.7,43.4-43.4,43.4H110.5
		c-23.7,0-43.4-19.7-43.4-43.4V82.8c-2-23.7,17.7-43.4,43.4-43.4h622.9c23.7,0,43.4,19.7,43.4,43.4L776.7,510.5L776.7,510.5z"/>
</g>
</svg>
