<?xml version="1.0" encoding="utf-8"?>
<!-- Generator: Adobe Illustrator 18.0.0, SVG Export Plug-In . SVG Version: 6.00 Build 0)  -->
<!DOCTYPE svg PUBLIC "-//W3C//DTD SVG 1.1//EN" "http://www.w3.org/Graphics/SVG/1.1/DTD/svg11.dtd">
<svg version="1.1" id="Calque_1" xmlns="http://www.w3.org/2000/svg" xmlns:xlink="http://www.w3.org/1999/xlink" x="0px" y="0px"
	 viewBox="0 0 841.9 595.3" enable-background="new 0 0 841.9 595.3" xml:space="preserve">
<g>
	<ellipse fill="#414142" cx="390.4" cy="425.4" rx="16.5" ry="16.5"/>
	<path fill="#414142" d="M644.4,265.5v75.9H136.5V89h347.9c3.3-13.2,8.2-24.7,13.2-36.3H118.4c-9.9,0-18.1,6.6-18.1,18.1v415.5
		c0,9.9,8.2,18.1,18.1,18.1h253.9v56.1H256.9c-9.9,0-18.1,8.2-18.1,18.1c0,9.9,8.2,18.1,18.1,18.1h265.5c9.9,0,18.1-8.2,18.1-18.1
		c0-9.9-8.2-18.1-18.1-18.1H406.9v-56.1h253.9c9.9,0,18.1-8.2,18.1-18.1V257.2C669.1,262.2,655.9,263.8,644.4,265.5z M644.4,466.7
		H136.5v-87.4h507.9V466.7z"/>
	<g>
		<path fill="#414142" d="M622.9,237.5c-66,0-118.7-52.8-118.7-118.7S557,0,622.9,0s118.7,52.8,118.7,118.7
			C741.7,183,688.9,237.5,622.9,237.5z M622.9,18.1c-56.1,0-100.6,44.5-100.6,100.6c0,54.4,44.5,100.6,100.6,100.6
			c54.4,0,100.6-44.5,100.6-100.6S679,18.1,622.9,18.1z"/>
		<path fill="#414142" d="M558.6,115.4h-18.1c1.6-41.2,36.3-74.2,77.5-74.2v18.1C586.7,59.4,560.3,84.1,558.6,115.4z"/>
		<path fill="#414142" d="M659.2,120.4c0,19.8-16.5,37.9-37.9,37.9c-19.8,0-37.9-16.5-37.9-37.9c0-19.8,16.5-37.9,37.9-37.9
			S659.2,98.9,659.2,120.4z"/>
	</g>
</g>
</svg>
