<?xml version="1.0" encoding="utf-8"?>
<!-- Generator: Adobe Illustrator 18.0.0, SVG Export Plug-In . SVG Version: 6.00 Build 0)  -->
<!DOCTYPE svg PUBLIC "-//W3C//DTD SVG 1.1//EN" "http://www.w3.org/Graphics/SVG/1.1/DTD/svg11.dtd">
<svg version="1.1" id="Calque_1" xmlns="http://www.w3.org/2000/svg" xmlns:xlink="http://www.w3.org/1999/xlink" x="0px" y="0px"
	 viewBox="0 0 25.5 31.9" enable-background="new 0 0 25.5 31.9" xml:space="preserve">
<path fill="#414042" d="M24.9,12.8h-2.6V4.6C22.3,2.2,20,0,17.7,0h-10C5.3,0,3.2,2.2,3.2,4.6v8.1H0.5c-0.3,0-0.5,0.3-0.5,0.6v18.1
	c0,0.2,0.3,0.5,0.5,0.5h24.4c0.3,0,0.6-0.3,0.6-0.5V13.3C25.5,13.1,25.2,12.8,24.9,12.8z M14.3,22.5c0,0,0,0.1,0,0.1v2.5
	c0,0.9-0.7,1.5-1.5,1.5c-0.9,0-1.5-0.7-1.5-1.5v-2.5c0,0,0-0.1,0-0.1c-0.7-0.5-1.1-1.3-1.1-2.2c0-1.5,1.2-2.6,2.6-2.6
	c1.5,0,2.6,1.2,2.6,2.6C15.4,21.3,15,22,14.3,22.5z M19.1,12.8H6.4V4.6c0-1.1,0.3-1.4,1.4-1.4h9.9c1.1,0,1.5,0.4,1.5,1.4V12.8z"/>
</svg>
