<?xml version="1.0" encoding="utf-8"?>
<!-- Generator: Adobe Illustrator 18.0.0, SVG Export Plug-In . SVG Version: 6.00 Build 0)  -->
<!DOCTYPE svg PUBLIC "-//W3C//DTD SVG 1.1//EN" "http://www.w3.org/Graphics/SVG/1.1/DTD/svg11.dtd">
<svg version="1.1" id="Calque_1" xmlns="http://www.w3.org/2000/svg" xmlns:xlink="http://www.w3.org/1999/xlink" x="0px" y="0px"
	 viewBox="0 0 841.9 595.3" enable-background="new 0 0 841.9 595.3" xml:space="preserve">
<g>
	<path fill="#414042" d="M230.9,298.5c0-137,44-251.2,104.4-290.3C200,29.4,97.2,151.7,97.2,298.5S200,565.9,335.3,588.8
		C275,549.6,230.9,433.8,230.9,298.5z"/>
	<circle fill="#414042" cx="509.8" cy="212" r="27.7"/>
	<path fill="#414042" d="M446.2,0c-89.7,0-159.8,130.5-159.8,298.5c0,166.4,70.1,298.5,159.8,298.5c164.7,0,298.5-133.7,298.5-298.5
		C744.7,133.7,610.9,0,446.2,0z M614.2,415.9H385.9v-39.1h99.5v-62h-13c-37.5,0-66.9-29.4-66.9-66.9v-60.3
		c0-37.5,29.4-66.9,66.9-66.9h65.2c37.5,0,66.9,29.4,66.9,66.9v60.3c0,37.5-29.4,66.9-66.9,66.9h-13v62h89.7V415.9z"/>
	<circle fill="#414042" cx="549" cy="172.9" r="19.6"/>
</g>
</svg>
