<?xml version="1.0" encoding="utf-8"?>
<!-- Generator: Adobe Illustrator 18.0.0, SVG Export Plug-In . SVG Version: 6.00 Build 0)  -->
<!DOCTYPE svg PUBLIC "-//W3C//DTD SVG 1.1//EN" "http://www.w3.org/Graphics/SVG/1.1/DTD/svg11.dtd">
<svg version="1.1" id="Calque_1" xmlns="http://www.w3.org/2000/svg" xmlns:xlink="http://www.w3.org/1999/xlink" x="0px" y="0px"
	 viewBox="0 0 19.8 17.4" enable-background="new 0 0 19.8 17.4" xml:space="preserve">
<g>
	<path fill="#FFFFFF" d="M19.8,13.7L18,10.3c0,0,0,0,0,0c0,0-0.1-0.1-0.1-0.1c0,0-0.1-0.1-0.1-0.1c0,0-0.1,0-0.1-0.1
		c-0.1,0-0.1-0.1-0.2-0.1c0,0,0,0,0,0c0,0,0,0-0.1,0c-0.1,0-0.1,0-0.2,0c0,0-0.1,0-0.1,0c0,0,0,0-0.1,0l-3.4,1.3
		c-0.4,0.1-0.6,0.6-0.4,1c0.1,0.4,0.6,0.6,1,0.4l1.9-0.7c-1.2,2.4-3.6,3.9-6.3,3.9c-3.2,0-6-2.2-6.8-5.4C2.9,10.1,2.5,9.9,2.1,10
		c-0.4,0.1-0.7,0.5-0.5,0.9c1,3.8,4.4,6.5,8.3,6.5c3.3,0,6.2-1.9,7.7-4.9l1,1.9c0.1,0.3,0.4,0.4,0.7,0.4c0.1,0,0.2,0,0.3-0.1
		C19.8,14.5,20,14.1,19.8,13.7z"/>
	<path fill="#FFFFFF" d="M1.7,6.7C1.7,6.7,1.7,6.7,1.7,6.7c0.1,0.1,0.1,0.2,0.2,0.2c0,0,0,0,0.1,0C2,7,2.1,7.1,2.1,7.1c0,0,0,0,0,0
		c0,0,0,0,0,0c0.1,0,0.1,0,0.2,0c0.1,0,0.1,0,0.2,0l3.5-1C6.5,6,6.7,5.6,6.6,5.2C6.5,4.8,6,4.5,5.6,4.7l-2,0.5
		C4.9,3,7.2,1.5,9.8,1.5c3.1,0,5.8,2,6.7,5c0.1,0.4,0.5,0.6,1,0.5c0.4-0.1,0.6-0.6,0.5-1C16.8,2.5,13.6,0,9.8,0
		c-3.2,0-6,1.8-7.5,4.5L1.5,2.7c-0.2-0.4-0.6-0.5-1-0.4c-0.4,0.2-0.5,0.6-0.4,1L1.7,6.7C1.7,6.7,1.7,6.7,1.7,6.7z"/>
</g>
</svg>
