<?xml version="1.0" encoding="utf-8"?>
<!-- Generator: Adobe Illustrator 18.0.0, SVG Export Plug-In . SVG Version: 6.00 Build 0)  -->
<!DOCTYPE svg PUBLIC "-//W3C//DTD SVG 1.1//EN" "http://www.w3.org/Graphics/SVG/1.1/DTD/svg11.dtd">
<svg version="1.1" id="Calque_1" xmlns="http://www.w3.org/2000/svg" xmlns:xlink="http://www.w3.org/1999/xlink" x="0px" y="0px"
	 viewBox="0 0 46.3 46" enable-background="new 0 0 46.3 46" xml:space="preserve">
<ellipse fill="#2073B6" cx="23.2" cy="23" rx="23.2" ry="23"/>
<g>
	<path fill="#FFFFFF" d="M17.8,17.2L17.8,17.2l1.1,2h0.8v-3.1h-0.8V18h0l-1.1-1.9H17v3.1h0.8V17.2z M17.8,17.2"/>
	<path fill="#FFFFFF" d="M22.8,18.5h-1.7v-0.6h1.5v-0.6h-1.5v-0.5h1.7v-0.7h-2.5v3.1h2.5V18.5z M22.8,18.5"/>
	<path fill="#FFFFFF" d="M24.7,19.2l0.4-2.2h0l0.4,2.2h0.8l0.9-3.1h-0.8L26,18.3h0l-0.5-2.3h-0.8l-0.5,2.3h0l-0.4-2.3H23l0.8,3.1
		H24.7z M24.7,19.2"/>
	<path fill="#FFFFFF" d="M27.8,16.2c-0.1,0.1-0.2,0.2-0.3,0.3c-0.1,0.1-0.1,0.3-0.1,0.4c0,0.1,0,0.3,0.1,0.4
		c0.1,0.1,0.1,0.2,0.2,0.3c0.1,0.1,0.2,0.1,0.3,0.2c0.1,0,0.2,0.1,0.3,0.1c0.1,0,0.2,0.1,0.3,0.1c0.1,0,0.2,0.1,0.3,0.1
		c0.1,0,0.2,0.1,0.2,0.1c0.1,0,0.1,0.1,0.1,0.2c0,0.1,0,0.1,0,0.2c0,0-0.1,0.1-0.1,0.1c0,0-0.1,0-0.2,0.1c-0.1,0-0.1,0-0.2,0
		c-0.2,0-0.3,0-0.4-0.1c-0.1-0.1-0.2-0.2-0.2-0.4h-0.8c0,0.2,0,0.4,0.1,0.5c0.1,0.1,0.2,0.3,0.3,0.3c0.1,0.1,0.3,0.2,0.4,0.2
		c0.2,0,0.3,0.1,0.5,0.1c0.2,0,0.3,0,0.5-0.1c0.2,0,0.3-0.1,0.4-0.2c0.1-0.1,0.2-0.2,0.3-0.3c0.1-0.1,0.1-0.3,0.1-0.5
		c0-0.1,0-0.3-0.1-0.4c-0.1-0.1-0.1-0.2-0.2-0.3c-0.1-0.1-0.2-0.1-0.3-0.2c-0.1,0-0.2-0.1-0.3-0.1c-0.1,0-0.2-0.1-0.3-0.1
		c-0.1,0-0.2,0-0.3-0.1c-0.1,0-0.2-0.1-0.2-0.1c-0.1,0-0.1-0.1-0.1-0.2c0-0.1,0-0.1,0-0.1c0,0,0.1-0.1,0.1-0.1c0,0,0.1,0,0.1,0
		c0,0,0.1,0,0.1,0c0.1,0,0.1,0,0.2,0c0.1,0,0.1,0,0.2,0.1c0.1,0,0.1,0.1,0.1,0.1c0,0,0,0.1,0,0.2H30c0-0.2,0-0.3-0.1-0.5
		c-0.1-0.1-0.2-0.2-0.3-0.3c-0.1-0.1-0.3-0.1-0.4-0.2C29,16,28.8,16,28.7,16c-0.1,0-0.3,0-0.4,0.1C28.1,16.1,28,16.1,27.8,16.2
		L27.8,16.2z M27.8,16.2"/>
	<path fill="#FFFFFF" d="M22.1,27.8h-4.7c-0.2,0-0.3,0.1-0.3,0.2v4.2c0,0.1,0.1,0.2,0.3,0.2h4.7c0.2,0,0.3-0.1,0.3-0.2V28
		C22.4,27.9,22.3,27.8,22.1,27.8L22.1,27.8z M22.1,27.8"/>
	<path fill="#FFFFFF" d="M28.8,27.8h-4.7c-0.2,0-0.3,0.1-0.3,0.2v4.2c0,0.1,0.1,0.2,0.3,0.2h4.7c0.2,0,0.3-0.1,0.3-0.2V28
		C29.1,27.9,29,27.8,28.8,27.8L28.8,27.8z M28.8,27.8"/>
	<path fill="#FFFFFF" d="M28.7,20.9h-11c-0.9,0-0.9,1.4,0,1.4h11C29.6,22.3,29.6,20.9,28.7,20.9L28.7,20.9z M28.7,20.9"/>
	<path fill="#FFFFFF" d="M28.7,24.2h-11c-0.9,0-0.9,1.4,0,1.4h11C29.6,25.7,29.6,24.2,28.7,24.2L28.7,24.2z M28.7,24.2"/>
	<path fill="#FFFFFF" d="M29.4,10.1H13.3v25.7h19.8V13.7L29.4,10.1z M31.4,34.2H15V11.8h13.5v2.7h2.9V34.2z M31.4,34.2"/>
</g>
</svg>
