<?xml version="1.0" encoding="utf-8"?>
<!-- Generator: Adobe Illustrator 18.0.0, SVG Export Plug-In . SVG Version: 6.00 Build 0)  -->
<!DOCTYPE svg PUBLIC "-//W3C//DTD SVG 1.1//EN" "http://www.w3.org/Graphics/SVG/1.1/DTD/svg11.dtd">
<svg version="1.1" id="Calque_1" xmlns="http://www.w3.org/2000/svg" xmlns:xlink="http://www.w3.org/1999/xlink" x="0px" y="0px"
	 viewBox="0 0 841.9 595.3" enable-background="new 0 0 841.9 595.3" xml:space="preserve">
<g>
	<path fill="#414042" d="M596.5,595.3H112.8V0h483.8V595.3z M153.4,554.6h402.4V40.7H153.4V554.6z"/>
	<path fill="#414042" d="M313.2,366.2H179.1V232.1h134.1L313.2,366.2L313.2,366.2z M192.6,352.6h107v-107h-107V352.6z"/>
	<path fill="#414042" d="M313.2,522.9H179.1V388.8h134.1L313.2,522.9L313.2,522.9z M192.6,509.4h107v-107h-107V509.4z"/>
	<g id="ok_2_">
		<path fill="#414042" d="M382.5,244.1l-101,101c-1.5,1.5-4.5,1.5-6,0l-28.6-28.6c-1.5-1.5-4.5-4.5-6-6l-21.1-21.1
			c-1.5-1.5-1.5-4.5,0-6l28.6-28.6c1.5-1.5,4.5-1.5,6,0l21.1,21.1c1.5,1.5,4.5,1.5,6,0l66.3-66.3c1.5-1.5,4.5-1.5,6,0l28.6,28.6
			C384,239.6,384,242.6,382.5,244.1z"/>
	</g>
	<g>
		<rect x="162.5" y="81.4" opacity="0.3" fill="#414042" enable-background="new    " width="256.2" height="30.1"/>
	</g>
	<g>
		<rect x="162.5" y="126.6" opacity="0.3" fill="#414042" enable-background="new    " width="211" height="30.1"/>
	</g>
	<g id="pencil_1_">
		<path id="pencil_4_" fill="#414042" d="M521.2,384.3l-51.2-52.7l162.8-162.8l51.2,51.2L521.2,384.3z M500.1,402.4
			c3-1.5,4.5-4.5,1.5-7.5l-42.2-42.2c-3-3-6-1.5-7.5,1.5l-27.1,72.3c-1.5,3,0,4.5,3,3L500.1,402.4z M726.1,165.8l-39.2-39.2
			c-3-3-9-3-13.6,0l-6,6l-12.1,13.6l-6,6l6,6l39.2,39.2l6,6l6-6l13.6-13.6l6-6C729.1,174.8,729.1,168.8,726.1,165.8z"/>
	</g>
</g>
</svg>
