<?xml version="1.0" encoding="utf-8"?>
<!-- Generator: Adobe Illustrator 18.0.0, SVG Export Plug-In . SVG Version: 6.00 Build 0)  -->
<!DOCTYPE svg PUBLIC "-//W3C//DTD SVG 1.1//EN" "http://www.w3.org/Graphics/SVG/1.1/DTD/svg11.dtd">
<svg version="1.1" id="Calque_1" xmlns="http://www.w3.org/2000/svg" xmlns:xlink="http://www.w3.org/1999/xlink" x="0px" y="0px"
	 viewBox="0 0 841.9 595.3" enable-background="new 0 0 841.9 595.3" xml:space="preserve">
<g>
	<g>
		<path fill="#414042" d="M752.3,422.7H427.2V20.5h327.2v402.2H752.3z M454.3,395.6h270.9v-348H454.3V395.6z"/>
		<path fill="#414042" d="M562.6,268.5H473v-91.7h89.6V268.5z M481.4,258h72.9v-70.9h-72.9V258z"/>
		<path fill="#414042" d="M562.6,372.7H473v-89.6h89.6V372.7z M481.4,364.3h72.9v-72.9h-72.9V364.3z"/>
		<g id="ok_4_">
			<path fill="#414042" d="M608.5,185.1l-68.8,68.8c-2.1,2.1-2.1,2.1-4.2,0l-18.8-18.8c-2.1-2.1-2.1-2.1-4.2-4.2L498,216.4
				c-2.1-2.1-2.1-2.1,0-4.2l18.8-18.8c2.1-2.1,2.1-2.1,4.2,0l14.6,14.6c2.1,2.1,2.1,2.1,4.2,0l43.8-43.8c2.1-2.1,2.1-2.1,4.2,0
				l18.8,18.8C610.6,183,610.6,185.1,608.5,185.1z"/>
		</g>
		<g>
			<rect x="500.1" y="95.5" opacity="0.3" fill="#414042" enable-background="new    " width="104.2" height="41.7"/>
		</g>
		<g>
			<polygon opacity="0.3" fill="#414042" enable-background="new    " points="489.7,137.2 585.6,137.2 585.6,137.2 			"/>
		</g>
		<g id="pencil_7_">
			<path id="pencil_8_" fill="#414042" d="M702.3,278.9l-35.4-33.3l110.4-110.4l35.4,33.3L702.3,278.9z M687.7,291.4
				c2.1,0,2.1-2.1,0-4.2L658.5,258c-2.1-2.1-4.2-2.1-4.2,2.1l-18.8,47.9c0,2.1,0,4.2,2.1,2.1L687.7,291.4z M839.8,133l-27.1-27.1
				c0-2.1-4.2-2.1-6.3,0l-4.2,4.2l-10.4,8.3l-4.2,6.3l4.2,4.2l27.1,27.1l4.2,4.2l4.2-4.2l8.3-10.4l4.2-4.2
				C844,139.3,844,135.1,839.8,133z"/>
		</g>
	</g>
	<g id="new_x5F_window_2_">
		<path fill="#414042" d="M250.1,522.7v25v4.2c0,8.3-18.8,0-27.1,0h-4.2H31.3h-2.1c-8.3,2.1-8.3,10.4-8.3,2.1v-4.2V364.3v-2.1
			c0-8.3,0-14.6,8.3-14.6h2.1H75c14.6,0,31.3-20.8,50-20.8H31.3C2.1,324.7,0,333.1,0,362.2v185.5c0,29.2,2.1,25,31.3,25h185.5
			c29.2,0,75,4.2,75-25v-47.9L250.1,522.7z"/>
	</g>
	<g id="comments_40_">
		<g>
			<path fill="#808285" d="M20.8,428.9h62.5l0,0H20.8L20.8,428.9z"/>
			<path fill="#58595B" d="M83.4,424.8H27.1v-37.5h56.3V424.8z M37.5,416.4H75v-18.8H37.5V416.4z"/>
		</g>
		<path opacity="0.3" fill="#808285" stroke="#58595B" stroke-miterlimit="10" enable-background="new    " d="M114.6,439.3H31.3
			v-20.8h83.4V439.3z"/>
	</g>
	<g id="comments_39_">
		<g>
			<path fill="#D1D3D4" d="M83.4,428.9h62.5l0,0H83.4L83.4,428.9z"/>
			<path fill="#58595B" d="M137.5,424.8H72.9v-37.5h64.6V424.8z M83.4,416.4h45.8v-18.8H83.4V416.4z"/>
		</g>
		<path opacity="0.3" fill="#D1D3D4" stroke="#58595B" stroke-miterlimit="10" enable-background="new    " d="M156.3,439.3h-41.7
			v-20.8h41.7V439.3z"/>
	</g>
	<g id="comments_38_">
		<g>
			<path fill="#D1D3D4" d="M145.9,428.9h62.5l0,0H145.9L145.9,428.9z"/>
			<path fill="#58595B" d="M175,424.8h-45.8v-37.5H175V424.8z M137.5,416.4h27.1v-18.8h-27.1V416.4z"/>
		</g>
		<path opacity="0.3" fill="#D1D3D4" stroke="#58595B" stroke-miterlimit="10" enable-background="new    " d="M218.8,439.3h-62.5
			v-20.8h62.5V439.3z"/>
	</g>
	<g id="comments_37_">
		<g>
			<path fill="#D1D3D4" d="M200.1,420.6h39.6v18.8h-39.6V420.6z"/>
			<path fill="#58595B" d="M220.9,424.8h-56.3v-37.5h54.2v37.5H220.9z M175,416.4h37.5v-18.8H175V416.4z"/>
		</g>
		<path opacity="0.3" fill="#D1D3D4" stroke="#58595B" stroke-miterlimit="10" enable-background="new    " d="M233.4,445.6h-37.5
			v-37.5h37.5V445.6z"/>
	</g>
	<g id="comments_36_">
		<g>
			<path fill="#FFFFFF" d="M6.3,428.9h60.4l0,0H6.3L6.3,428.9z"/>
			<path fill="#58595B" d="M83.4,462.3H27.1v-45.8h56.3V462.3z M37.5,451.8H75v-27.1H37.5V451.8z"/>
		</g>
		<path opacity="0.3" fill="#FFFFFF" stroke="#58595B" stroke-miterlimit="10" enable-background="new    " d="M114.6,460.2H31.3
			v-20.8h83.4V460.2z"/>
	</g>
	<g id="comments_35_">
		<g>
			<path fill="#FFFFFF" d="M68.8,428.9h60.4l0,0H68.8L68.8,428.9z"/>
			<path fill="#58595B" d="M137.5,462.3H72.9v-45.8h64.6V462.3z M83.4,451.8h45.8v-27.1H83.4V451.8z"/>
		</g>
		<path opacity="0.3" fill="#FFFFFF" stroke="#58595B" stroke-miterlimit="10" enable-background="new    " d="M156.3,460.2h-41.7
			v-20.8h41.7V460.2z"/>
	</g>
	<g id="comments_34_">
		<g>
			<path fill="#FFFFFF" d="M129.2,428.9h60.4l0,0H129.2L129.2,428.9z"/>
			<path fill="#58595B" d="M175,462.3h-45.8v-45.8H175V462.3z M137.5,451.8h27.1v-27.1h-27.1V451.8z"/>
		</g>
		<path opacity="0.3" fill="#FFFFFF" stroke="#58595B" stroke-miterlimit="10" enable-background="new    " d="M218.8,460.2h-62.5
			v-20.8h62.5V460.2z"/>
	</g>
	<g id="comments_33_">
		<g>
			<path fill="#FFFFFF" d="M189.6,428.9h60.4l0,0H189.6L189.6,428.9z"/>
			<path fill="#58595B" d="M220.9,462.3h-56.3v-45.8h54.2v45.8H220.9z M175,451.8h37.5v-27.1H175V451.8z"/>
		</g>
		<path opacity="0.3" fill="#FFFFFF" stroke="#58595B" stroke-miterlimit="10" enable-background="new    " d="M233.4,464.4h-37.5
			v-18.8h37.5V464.4z"/>
	</g>
	<g id="comments_32_">
		<g>
			<path fill="#FFFFFF" d="M20.8,428.9h62.5v41.7H20.8V428.9z"/>
			<path fill="#58595B" d="M83.4,478.9H27.1v-27.1h56.3V478.9z M37.5,470.6H75v-8.3H37.5V470.6z"/>
		</g>
		<path opacity="0.3" fill="#FFFFFF" stroke="#58595B" stroke-miterlimit="10" enable-background="new    " d="M114.6,481H31.3
			v-20.8h83.4V481z"/>
	</g>
	<g id="comments_31_">
		<g>
			<path fill="#FFFFFF" d="M83.4,428.9h62.5v41.7H83.4V428.9z"/>
			<path fill="#58595B" d="M137.5,478.9H72.9v-27.1h64.6V478.9z M83.4,470.6h45.8v-8.3H83.4V470.6z"/>
		</g>
		<path opacity="0.3" fill="#FFFFFF" stroke="#58595B" stroke-miterlimit="10" enable-background="new    " d="M156.3,481h-41.7
			v-20.8h41.7V481z"/>
	</g>
	<g id="comments_30_">
		<g>
			<path fill="#FFFFFF" d="M145.9,428.9h62.5v41.7h-62.5V428.9z"/>
			<path fill="#58595B" d="M175,478.9h-45.8v-27.1H175V478.9z M137.5,470.6h27.1v-8.3h-27.1V470.6z"/>
		</g>
		<path opacity="0.3" fill="#FFFFFF" stroke="#58595B" stroke-miterlimit="10" enable-background="new    " d="M218.8,481h-62.5
			v-20.8h62.5V481z"/>
	</g>
	<g id="comments_29_">
		<g>
			<path fill="#FFFFFF" d="M200.1,439.3h39.6v39.6h-39.6V439.3z"/>
			<path fill="#58595B" d="M220.9,478.9h-56.3v-27.1h54.2v27.1H220.9z M175,470.6h37.5v-8.3H175V470.6z"/>
		</g>
		<path opacity="0.3" fill="#FFFFFF" stroke="#58595B" stroke-miterlimit="10" enable-background="new    " d="M233.4,483.1h-37.5
			v-18.8h37.5V483.1z"/>
	</g>
	<g id="comments_28_">
		<g>
			<path fill="#FFFFFF" d="M31.3,470.6h47.9l0,0H31.3L31.3,470.6z"/>
			<path fill="#58595B" d="M83.4,508.1H27.1v-37.5h56.3V508.1z M37.5,497.7H75v-18.8H37.5V497.7z"/>
		</g>
		<path opacity="0.3" fill="#FFFFFF" stroke="#58595B" stroke-miterlimit="10" enable-background="new    " d="M81.3,481H25l0,0
			H81.3L81.3,481z"/>
	</g>
	<g id="comments_27_">
		<g>
			<path fill="#FFFFFF" d="M79.2,470.6h47.9l0,0H79.2L79.2,470.6z"/>
			<path fill="#58595B" d="M137.5,508.1H72.9v-37.5h64.6V508.1z M83.4,497.7h45.8v-18.8H83.4V497.7z"/>
		</g>
		<path opacity="0.3" fill="#FFFFFF" stroke="#58595B" stroke-miterlimit="10" enable-background="new    " d="M137.5,481H81.3l0,0
			H137.5L137.5,481z"/>
	</g>
	<g id="comments_22_">
		<g>
			<path fill="#FFFFFF" d="M127.1,470.6H175l0,0H127.1L127.1,470.6z"/>
			<path fill="#58595B" d="M175,508.1h-45.8v-37.5H175V508.1z M137.5,497.7h27.1v-18.8h-27.1V497.7z"/>
		</g>
		<path opacity="0.3" fill="#FFFFFF" stroke="#58595B" stroke-miterlimit="10" enable-background="new    " d="M195.9,481h-58.3l0,0
			H195.9L195.9,481z"/>
	</g>
	<g id="comments_17_">
		<g>
			<path fill="#FFFFFF" d="M175,470.6H223l0,0H175L175,470.6z"/>
			<path fill="#58595B" d="M220.9,508.1h-56.3v-37.5h54.2v37.5H220.9z M175,497.7h37.5v-18.8H175V497.7z"/>
		</g>
		<path opacity="0.3" fill="#FFFFFF" stroke="#58595B" stroke-miterlimit="10" enable-background="new    " d="M233.4,483.1h-37.5
			l0,0H233.4L233.4,483.1z"/>
	</g>
	<g id="comments_12_">
		<g>
			<path fill="#FFFFFF" d="M20.8,470.6h62.5v20.8H20.8V470.6z"/>
			<path fill="#58595B" d="M83.4,535.2H27.1v-37.5h56.3V535.2z M37.5,524.8H75V506H37.5V524.8z"/>
		</g>
		<path opacity="0.3" fill="#FFFFFF" stroke="#58595B" stroke-miterlimit="10" enable-background="new    " d="M79.2,481H14.6l0,0
			H79.2L79.2,481z"/>
	</g>
	<g id="comments_7_">
		<g>
			<path fill="#FFFFFF" d="M83.4,470.6h62.5v20.8H83.4V470.6z"/>
			<path fill="#58595B" d="M137.5,535.2H72.9v-37.5h64.6V535.2z M83.4,524.8h45.8V506H83.4V524.8z"/>
		</g>
		<path opacity="0.3" fill="#FFFFFF" stroke="#58595B" stroke-miterlimit="10" enable-background="new    " d="M143.8,481H79.2l0,0
			H143.8L143.8,481z"/>
	</g>
	<g id="comments_6_">
		<g>
			<path fill="#FFFFFF" d="M145.9,470.6h62.5v20.8h-62.5V470.6z"/>
			<path fill="#58595B" d="M175,535.2h-45.8v-37.5H175V535.2z M137.5,524.8h27.1V506h-27.1V524.8z"/>
		</g>
		<path opacity="0.3" fill="#FFFFFF" stroke="#58595B" stroke-miterlimit="10" enable-background="new    " d="M208.4,481h-64.6l0,0
			H208.4L208.4,481z"/>
	</g>
	<g id="comments_1_">
		<g>
			<path fill="#FFFFFF" d="M200.1,478.9h39.6v18.8h-39.6V478.9z"/>
			<path fill="#58595B" d="M220.9,535.2h-56.3v-37.5h54.2v37.5H220.9z M175,524.8h37.5V506H175V524.8z"/>
		</g>
		<path opacity="0.3" fill="#FFFFFF" stroke="#58595B" stroke-miterlimit="10" enable-background="new    " d="M233.4,503.9h-37.5
			v-18.8h37.5V503.9z"/>
	</g>
	<path fill="#414042" d="M237.6,497.7v-87.5c-47.9,0-154.2-2.1-185.5,72.9c2.1-152.1,148-173,185.5-177.1v-81.3L423,360.2
		L237.6,497.7z"/>
</g>
</svg>
