<?xml version="1.0" encoding="utf-8"?>
<!-- Generator: Adobe Illustrator 18.0.0, SVG Export Plug-In . SVG Version: 6.00 Build 0)  -->
<!DOCTYPE svg PUBLIC "-//W3C//DTD SVG 1.1//EN" "http://www.w3.org/Graphics/SVG/1.1/DTD/svg11.dtd">
<svg version="1.1" id="Calque_1" xmlns="http://www.w3.org/2000/svg" xmlns:xlink="http://www.w3.org/1999/xlink" x="0px" y="0px"
	 viewBox="0 0 841.9 595.3" enable-background="new 0 0 841.9 595.3" xml:space="preserve">
<g>
	<path fill="#414042" d="M501.7,196c-3.6,0-7.3,0-10.9,1.8c-3.6-16.3-10.9-32.7-20-45.4c12.7-10.9,20-25.4,20-43.6
		c0-30.9-25.4-56.3-56.3-56.3c-20,0-36.3,9.1-45.4,23.6c-9.1-3.6-18.1-9.1-29-10.9c0-1.8,0-5.4,0-9.1c0-30.9-25.4-56.3-56.3-56.3
		s-56.3,25.4-56.3,56.3c0,3.6,0,5.4,0,9.1c-12.7,3.6-23.6,9.1-36.3,14.5c-9.1-14.5-25.4-23.6-43.6-23.6c-30.9,0-56.3,25.4-56.3,56.3
		c0,18.1,9.1,34.5,21.8,45.4c-7.3,12.7-12.7,25.4-16.3,38.1c-1.8,0-3.6,0-5.4,0c-30.9,0-56.3,25.4-56.3,56.3
		c-1.8,30.9,23.6,56.3,54.4,56.3c1.8,0,3.6,0,5.4,0c3.6,12.7,9.1,23.6,14.5,34.5c-12.7,10.9-20,25.4-20,43.6
		c0,30.9,25.4,56.3,56.3,56.3c16.3,0,32.7-7.3,41.7-20c12.7,7.3,25.4,12.7,38.1,16.3c0,1.8,0,5.4,0,9.1c0,30.9,25.4,56.3,56.3,56.3
		s56.3-25.4,56.3-56.3c0-3.6,0-5.4,0-9.1c12.7-3.6,23.6-9.1,34.5-14.5c10.9,10.9,25.4,16.3,39.9,16.3c30.9,0,56.3-25.4,56.3-56.3
		c0-14.5-5.4-29-16.3-39.9c7.3-12.7,12.7-25.4,16.3-38.1c3.6,0,7.3,1.8,10.9,1.8c30.9,0,56.3-25.4,56.3-56.3
		C558,221.4,532.6,196,501.7,196z M305.7,344.8c-50.8,0-92.6-41.7-92.6-92.6s41.7-92.6,92.6-92.6s92.6,41.7,92.6,92.6
		S356.5,344.8,305.7,344.8z"/>
	<path fill="#414042" d="M763,473.7c16.3-3.6,27.2-18.1,25.4-34.5c-3.6-16.3-18.1-27.2-34.5-25.4c-1.8,0-3.6,0-5.4,1.8
		c-3.6-7.3-9.1-14.5-14.5-21.8c5.4-7.3,9.1-14.5,7.3-23.6c-3.6-16.3-18.1-27.2-34.5-25.4c-10.9,1.8-18.1,9.1-21.8,16.3
		c-5.4-1.8-10.9-1.8-16.3-3.6c0-1.8,0-3.6,0-3.6c-3.6-16.3-18.1-27.2-34.5-25.4c-16.3,3.6-27.2,18.1-25.4,34.5c0,1.8,0,3.6,1.8,3.6
		c-5.4,3.6-12.7,7.3-18.1,10.9c-7.3-7.3-16.3-9.1-25.4-7.3c-16.3,3.6-27.2,18.1-25.4,34.5c1.8,9.1,7.3,18.1,16.3,21.8
		c-1.8,7.3-3.6,14.5-5.4,21.8c-1.8,0-1.8,0-3.6,0c-16.3,3.6-27.2,18.1-25.4,34.5c3.6,16.3,18.1,27.2,34.5,25.4c1.8,0,1.8,0,3.6,0
		c3.6,5.4,7.3,10.9,10.9,16.3c-5.4,7.3-9.1,14.5-7.3,25.4c3.6,16.3,18.1,27.2,34.5,25.4c9.1-1.8,16.3-7.3,20-14.5
		c7.3,1.8,14.5,3.6,21.8,5.4c0,1.8,0,3.6,0,3.6c3.6,16.3,18.1,27.2,34.5,25.4c16.3-3.6,27.2-18.1,25.4-34.5c0-1.8,0-3.6-1.8-3.6
		c5.4-3.6,10.9-7.3,16.3-10.9c7.3,5.4,14.5,7.3,23.6,5.4c16.3-3.6,27.2-18.1,25.4-34.5c-1.8-7.3-5.4-14.5-12.7-20
		c1.8-7.3,3.6-14.5,5.4-21.8C759.4,473.7,761.2,473.7,763,473.7z M663.2,510c-27.2,5.4-52.6-12.7-58.1-39.9
		c-5.4-27.2,12.7-52.6,39.9-58.1c27.2-5.4,52.6,12.7,58.1,39.9S690.5,504.5,663.2,510z"/>
</g>
</svg>
