<?xml version="1.0" encoding="utf-8"?>
<!-- Generator: Adobe Illustrator 18.0.0, SVG Export Plug-In . SVG Version: 6.00 Build 0)  -->
<!DOCTYPE svg PUBLIC "-//W3C//DTD SVG 1.1//EN" "http://www.w3.org/Graphics/SVG/1.1/DTD/svg11.dtd">
<svg version="1.1" id="Calque_1" xmlns="http://www.w3.org/2000/svg" xmlns:xlink="http://www.w3.org/1999/xlink" x="0px" y="0px"
	 viewBox="0 0 841.9 595.3" enable-background="new 0 0 841.9 595.3" xml:space="preserve">
<g>
	<g>
		<rect x="266.6" y="116.2" fill="#BBBDBF" width="144.3" height="20"/>
		<rect x="266.6" y="218.5" fill="#BBBDBF" width="190.4" height="34.1"/>
		<rect x="266.6" y="116.2" fill="#BBBDBF" width="144.3" height="20"/>
		<rect x="268.6" y="274.6" fill="#BBBDBF" width="254.5" height="20"/>
		<rect x="268.6" y="310.7" fill="#BBBDBF" width="254.5" height="20"/>
		<rect x="431" y="116.2" fill="#BBBDBF" width="144.3" height="20"/>
		<rect x="431" y="348.7" fill="#BBBDBF" width="144.3" height="20"/>
		<rect x="266.6" y="64.1" fill="#BBBDBF" width="306.7" height="20"/>
		<circle fill="#BBBDBF" cx="278.6" cy="176.4" r="10"/>
		<circle fill="#BBBDBF" cx="310.7" cy="176.4" r="10"/>
	</g>
	<path fill="#404041" d="M663.5,420.9h-485c-8,0-16-8-16-16V16c0-8,8-16,16-16h485c8,0,16,8,16,16v388.8
		C679.5,412.9,673.5,420.9,663.5,420.9z M194.5,388.8h453V32.1h-453V388.8z"/>
	<g>
		<path fill="#404041" d="M386.9,308.7h-44.1c-8,0-14-6-14-14s6-14,14-14h44.1c8,0,14,6,14,14S394.9,308.7,386.9,308.7z"/>
		<path fill="#404041" d="M467,242.5c-8,0-14-6-14-14v-42.1c0-8,6-14,14-14s14,6,14,14v42.1C481.1,236.5,475.1,242.5,467,242.5z"/>
		<path fill="#404041" d="M418.9,264.6c-4,0-6-2-10-4l-32.1-30.1c-6-6-6-14,0-18c6-6,14-6,18,0l30.1,28.1c4,2,6,6,6,10
			C431,258.6,425,264.6,418.9,264.6L418.9,264.6z"/>
		<path fill="#404041" d="M591.3,308.7h-44.1c-8,0-14-6-14-14s6-14,14-14h44.1c8,0,14,6,14,14S599.3,308.7,591.3,308.7z"/>
		<path fill="#404041" d="M515.1,264.6c-4,0-6-2-10-4c-6-6-4-14,0-18l32.1-30.1c6-6,14-4,18,0c6,6,4,14,0,18l-30.1,30.1
			C523.2,262.6,519.2,264.6,515.1,264.6z"/>
		<g>
			<path fill="#A6A8AB" d="M633.4,449c0-12-10-22-22-22h-2c-12,0-20,8-22,18v-20c0-12-10-22-22-22h-2c-12,0-20,8-22,18v-20
				c0-12-10-22-22-22h-2c-12,0-20,8-22,18v-90.2c0-12-10-22-22-22h-2c-12,0-22,10-22,22v194.4L410.9,465c-8-8-24.1-8-32.1,0l-2,2
				c-8,8-8,22,0,30.1l70.2,76.2c4,4,8,6,14,6h160.3c10,0,18-8,18-18l0,0l0,0V449H633.4z"/>
			<path fill="#404041" d="M615.4,595.3H455c-10,0-18-4-24.1-10l-68.1-76.2c-6-6-10-14-10-24.1s4-18,10-24.1l2-2
				c14-14,36.1-14,50.1,0l14,14V310.7c0-20,16-36.1,36.1-36.1h2c20,0,36.1,16,36.1,36.1v58.1c2,0,6-2,10-2h2c16,0,30.1,10,34.1,26.1
				c4,0,6-2,10-2h4c16,0,30.1,10,34.1,24.1c4-2,6-2,10-2h2c20,0,36.1,16,36.1,36.1v116.2c0,2,0,2,0,4
				C645.4,583.3,631.4,595.3,615.4,595.3z M390.9,473c-2,0-4,0-6,2l-2,2c-2,2-2,4-2,6c0,2,0,4,2,6l70.2,76.2c0,0,2,2,4,2h160.3
				c2,0,4-2,4-4v-2V447c0-4-4-8-10-8h-2c-4,0-8,4-10,8c-2,6-8,12-14,12s-12-6-12-14v-20c0-4-4-8-10-8h-2c-4,0-8,4-10,8
				c-2,6-8,12-14,12s-12-6-12-14v-20c0-4-4-8-10-8h-2c-4,0-8,4-10,8c-2,6-8,12-14,12s-12-6-12-14v-90.2c0-4-4-8-10-8h-2
				c-6,0-10,4-10,8v194.4c0,6-4,10-8,12c-4,2-10,2-14-2L394.9,479C394.9,475,392.9,473,390.9,473z"/>
		</g>
	</g>
</g>
</svg>
