<?xml version="1.0" encoding="utf-8"?>
<!-- Generator: Adobe Illustrator 18.0.0, SVG Export Plug-In . SVG Version: 6.00 Build 0)  -->
<!DOCTYPE svg PUBLIC "-//W3C//DTD SVG 1.1//EN" "http://www.w3.org/Graphics/SVG/1.1/DTD/svg11.dtd">
<svg version="1.1" id="Calque_1" xmlns="http://www.w3.org/2000/svg" xmlns:xlink="http://www.w3.org/1999/xlink" x="0px" y="0px"
	 viewBox="0 0 26.5 27.2" enable-background="new 0 0 26.5 27.2" xml:space="preserve">
<g>
	<polygon fill="#414042" points="20.3,26.3 6.2,26.3 6.7,23.6 11.1,22 13.1,19.9 19.6,22.2 	"/>
	<polygon fill="#414042" points="8.9,6.2 14.8,5.2 17.3,5.7 15.9,8.6 15.1,11.2 14.1,12 13.1,14.5 12.3,12.2 11.5,10.9 	"/>
	<rect x="2.3" y="0" fill="#414042" width="1.5" height="26.5"/>
	<rect x="22.4" y="0" fill="#414042" width="1.5" height="26.5"/>
	<rect x="0" y="25.8" fill="#414042" width="26.5" height="1.5"/>
	<rect x="0" y="0" fill="#414042" width="26.5" height="1.5"/>
	<path fill="#414042" d="M6.7,26.3H5.2c0-2.8,1.8-5.7,3.4-8.2c1.3-2,2.5-4,2.5-5.4c0-1.5-1.4-3.6-2.9-5.6c-1.6-2.3-3.3-4.7-3.3-7
		h1.5c0,1.8,1.6,4,3.1,6.1c1.6,2.3,3.1,4.4,3.1,6.5c0,1.9-1.3,4-2.7,6.2C8.3,21.4,6.7,23.9,6.7,26.3z"/>
	<path fill="#414042" d="M21,26.3h-1.5c0-2.4-1.6-4.9-3.1-7.4c-1.4-2.2-2.7-4.3-2.7-6.2c0-2,1.5-4.2,3.1-6.5
		c1.5-2.1,3.1-4.4,3.1-6.1h1.5c0,2.3-1.7,4.7-3.3,7c-1.4,2-2.9,4.1-2.9,5.6c0,1.5,1.2,3.4,2.5,5.4C19.3,20.7,21,23.5,21,26.3z"/>
	<rect x="12.8" y="12.7" fill="#414042" width="0.5" height="9"/>
</g>
</svg>
