<?xml version="1.0" encoding="utf-8"?>
<!-- Generator: Adobe Illustrator 18.0.0, SVG Export Plug-In . SVG Version: 6.00 Build 0)  -->
<!DOCTYPE svg PUBLIC "-//W3C//DTD SVG 1.1//EN" "http://www.w3.org/Graphics/SVG/1.1/DTD/svg11.dtd">
<svg version="1.1" id="Calque_1" xmlns="http://www.w3.org/2000/svg" xmlns:xlink="http://www.w3.org/1999/xlink" x="0px" y="0px"
	 viewBox="0 0 841.9 595.3" enable-background="new 0 0 841.9 595.3" xml:space="preserve">
<g id="settings_1_">
	<g id="settings_3_">
		<path fill="#414042" d="M669.4,259.6c38.8-38.8,58.2-88,41.8-143.2l-89.5,89.5L538.1,182l-25.4-85l91-91
			C548.5-11.9,496.3,6,456,46.2c-41.8,41.8-55.2,98.5-40.3,149.2L151.7,444.6l0,0c0,0-1.5,1.5-3,3c-32.8,32.8-32.8,86.5,0,119.4
			c32.8,32.8,86.5,32.8,119.4,0c1.5-1.5,1.5-3,1.5-3l0,0l249.2-265.6C572.4,313.3,627.6,299.9,669.4,259.6z M517.2,361
			c4.5-4.5,11.9-6,17.9,0l141.7,128.3c4.5,4.5,6,11.9,0,16.4l-86.5,86.5c-4.5,4.5-11.9,4.5-17.9,0L447.1,453.5
			c-4.5-4.5-4.5-13.4,0-17.9L517.2,361z M205.4,186.5c7.5,0,16.4,3,20.9,7.5l62.7,61.2c4.5,4.5,13.4,4.5,17.9,0l29.8-26.9
			c4.5-4.5,4.5-11.9,0-17.9l-64.2-62.7c-4.5-4.5-7.5-13.4-7.5-20.9v-13.4c0-7.5-4.5-14.9-10.4-19.4L186,49.2c-6-4.5-14.9-3-19.4,1.5
			l-35.8,35.8c-4.5,6-6,13.4-1.5,19.4L174,176c3,6,11.9,10.4,19.4,10.4L205.4,186.5z"/>
	</g>
</g>
</svg>
