<?xml version="1.0" encoding="utf-8"?>
<!-- Generator: Adobe Illustrator 18.0.0, SVG Export Plug-In . SVG Version: 6.00 Build 0)  -->
<!DOCTYPE svg PUBLIC "-//W3C//DTD SVG 1.1//EN" "http://www.w3.org/Graphics/SVG/1.1/DTD/svg11.dtd">
<svg version="1.1" id="Calque_1" xmlns="http://www.w3.org/2000/svg" xmlns:xlink="http://www.w3.org/1999/xlink" x="0px" y="0px"
	 viewBox="0 0 841.9 595.3" enable-background="new 0 0 841.9 595.3" xml:space="preserve">
<g>
	<polygon fill="#414042" points="263.3,246 267.2,198.9 299.9,145.2 360.1,99.4 450.4,90.3 509.3,115.1 547.2,155.7 570.7,183.2 
		570.7,192.3 526.3,209.3 473.9,227.6 416.4,240.7 370.6,238.1 328.7,222.4 294.7,227.6 	"/>
	<g>
		<g>
			<defs>
				<path id="SVGID_1_" d="M248.9,251.2c0-94.2,77.2-171.4,172.7-171.4S594.3,157,594.3,252.5v34c0,95.5-77.2,172.7-172.7,172.7
					c-95.5-1.3-172.7-78.5-172.7-174V251.2z"/>
			</defs>
			<clipPath id="SVGID_2_">
				<use xlink:href="#SVGID_1_"  overflow="visible"/>
			</clipPath>
			<path clip-path="url(#SVGID_2_)" fill="#414042" d="M421.6,480.1c-107.3,0-194.9-87.7-194.9-194.9v-34
				c0-107.3,87.7-194.9,194.9-194.9s194.9,87.7,194.9,194.9v34C616.5,393.8,528.9,480.1,421.6,480.1z M421.6,102
				c-82.4,0-149.1,66.7-149.1,149.1v34c0,82.4,66.7,149.1,149.1,149.1s149.1-66.7,149.1-149.1v-34C570.7,168.8,504,102,421.6,102z"
				/>
		</g>
	</g>
	<path fill="#414042" d="M260.7,263c-2.6,0-6.5-1.3-7.8-3.9c-3.9-3.9-3.9-11.8,0-15.7c1.3-1.3,45.8-44.5,115.1-19.6
		c44.5,15.7,132.1-15.7,174-31.4c19.6-6.5,24.9-9.2,28.8-9.2c6.5,0,11.8,5.2,11.8,11.8c0,6.5-5.2,11.8-11.8,11.8
		c-1.3,0-11.8,3.9-20.9,7.8c-48.4,18.3-137.4,51-189.7,31.4c-54.9-19.6-90.3,13.1-91.6,14.4C265.9,261.7,263.3,263,260.7,263z"/>
	<g>
		<g>
			<defs>
				<path id="SVGID_3_" d="M203.1,515.5c0-44.5,36.6-79.8,79.8-79.8h264.3c44.5,0,79.8,36.6,79.8,79.8v79.8H203.1V515.5z"/>
			</defs>
			<clipPath id="SVGID_4_">
				<use xlink:href="#SVGID_3_"  overflow="visible"/>
			</clipPath>
			<path clip-path="url(#SVGID_4_)" fill="#414042" d="M628.3,618.8H203.1c-13.1,0-23.5-10.5-23.5-23.5v-79.8
				c0-57.6,45.8-103.4,103.4-103.4h264.3c57.6,0,103.4,45.8,103.4,103.4v79.8C650.6,608.4,640.1,618.8,628.3,618.8z M226.7,573
				h378.1v-57.6c0-31.4-26.2-57.6-57.6-57.6h-263c-31.4,0-57.6,26.2-57.6,57.6V573z"/>
		</g>
	</g>
	<path fill="#414042" d="M421.6,549.5c-3.9,0-6.5-1.3-9.2-5.2l-69.3-91.6c-2.6-3.9-2.6-7.8-1.3-11.8c1.3-3.9,6.5-6.5,10.5-6.5h137.4
		c3.9,0,7.8,2.6,10.5,6.5c1.3,3.9,1.3,9.2-1.3,11.8l-69.3,91.6C428.1,548.2,424.2,549.5,421.6,549.5z M375.8,457.9l45.8,61.5
		l45.8-61.5H375.8z"/>
	<path fill="#414042" d="M644,234.2c0,13.1-10.5,24.9-24.9,24.9c-13.1,0-24.9-10.5-24.9-24.9c0-13.1,10.5-24.9,24.9-24.9
		C633.5,209.3,644,219.8,644,234.2z"/>
	<polygon fill="#414042" points="634.9,300.9 604.8,300.9 611.3,266.9 611.3,82.4 628.3,82.4 628.3,266.9 	"/>
	<polygon fill="#414042" stroke="#FFFFFF" stroke-width="0.5" stroke-miterlimit="10" points="702.9,85 421.6,202.8 139,85 
		421.6,3.9 	"/>
</g>
</svg>
