<?xml version="1.0" encoding="utf-8"?>
<!-- Generator: Adobe Illustrator 18.0.0, SVG Export Plug-In . SVG Version: 6.00 Build 0)  -->
<!DOCTYPE svg PUBLIC "-//W3C//DTD SVG 1.1//EN" "http://www.w3.org/Graphics/SVG/1.1/DTD/svg11.dtd">
<svg version="1.1" id="Calque_1" xmlns="http://www.w3.org/2000/svg" xmlns:xlink="http://www.w3.org/1999/xlink" x="0px" y="0px"
	 viewBox="0 0 841.9 595.3" enable-background="new 0 0 841.9 595.3" xml:space="preserve">
<g>
	<g>
		<g>
			<defs>
				<path id="SVGID_1_" d="M229,198.4C229,88.9,317.9,0,427.4,0s198.4,88.9,198.4,198.4v39.9c0,109.5-88.9,198.4-198.4,198.4
					S229,347.9,229,238.4V198.4z"/>
			</defs>
			<clipPath id="SVGID_2_">
				<use xlink:href="#SVGID_1_"  overflow="visible"/>
			</clipPath>
			<path clip-path="url(#SVGID_2_)" fill="#414042" d="M427.4,463.9c-123.7,0-224.2-101.8-224.2-225.5v-39.9
				c0-123.7,100.5-225.5,225.5-225.5c123.7,0,224.2,101.8,224.2,225.5v39.9C652.9,362.1,552.4,463.9,427.4,463.9z M427.4,27.1
				c-95.3,0-172.7,77.3-172.7,172.7v39.9c0,95.3,77.3,172.7,172.7,172.7S600,335,600,239.7v-39.9C600,104.4,522.7,27.1,427.4,27.1z"
				/>
		</g>
	</g>
	<path fill="#414042" d="M600,118.5L573,87.6l-42.5-46.4l-69.6-28.3L356.5,23.2l-68.3,51.5l-38.7,61.8l-3.9,39.9
		c-7.7,5.2-12.9,10.3-14.2,10.3c-5.2,5.2-5.2,12.9,0,18c2.6,2.6,6.4,3.9,9,3.9c3.9,0,6.4-1.3,9-3.9c3.9,1.3,43.8-37.4,106.9-14.2
		c60.6,21.9,163.6-16.8,219-36.1c11.6-3.9,23.2-9,24.5-9c7.7,0,12.9-6.4,12.9-12.9C612.9,125,607.8,118.5,600,118.5z"/>
	<g>
		<g>
			<defs>
				<path id="SVGID_3_" d="M176.1,503.8c0-51.5,41.2-92.8,92.8-92.8H573c51.5,0,92.8,41.2,92.8,92.8v92.8H176.1V503.8z"/>
			</defs>
			<clipPath id="SVGID_4_">
				<use xlink:href="#SVGID_3_"  overflow="visible"/>
			</clipPath>
			<path clip-path="url(#SVGID_4_)" fill="#414042" d="M665.8,622.3H176.1c-14.2,0-27.1-11.6-27.1-27.1v-92.8
				c0-65.7,54.1-118.5,119.8-118.5H573c65.7,0,119.8,52.8,119.8,118.5v92.8C692.8,610.7,681.2,622.3,665.8,622.3z M203.2,569.5H640
				v-65.7c0-36.1-29.6-65.7-65.7-65.7H268.9c-36.1,0-65.7,29.6-65.7,65.7V569.5z"/>
		</g>
	</g>
	<path fill="#414042" d="M427.4,542.5c-3.9,0-7.7-2.6-10.3-5.2l-79.9-105.7c-2.6-3.9-3.9-9-1.3-14.2c2.6-3.9,6.4-7.7,11.6-7.7H506
		c5.2,0,9,2.6,11.6,7.7c2.6,3.9,1.3,10.3-1.3,14.2l-79.9,105.7C436.4,541.2,431.3,542.5,427.4,542.5z M374.6,436.8l52.8,70.9
		l52.8-70.9H374.6z"/>
	<path fill="#414042" d="M441.6,453.5c0,14.2-6.4,24.5-14.2,24.5c-7.7,0-14.2-11.6-14.2-24.5c0-14.2,6.4-24.5,14.2-24.5
		C435.1,427.8,441.6,439.4,441.6,453.5z"/>
	<polygon fill="#414042" points="420.9,463.9 413.2,507.7 441.6,507.7 433.8,463.9 	"/>
</g>
</svg>
