<?xml version="1.0" encoding="utf-8"?>
<!-- Generator: Adobe Illustrator 18.0.0, SVG Export Plug-In . SVG Version: 6.00 Build 0)  -->
<!DOCTYPE svg PUBLIC "-//W3C//DTD SVG 1.1//EN" "http://www.w3.org/Graphics/SVG/1.1/DTD/svg11.dtd">
<svg version="1.1" id="Calque_1" xmlns="http://www.w3.org/2000/svg" xmlns:xlink="http://www.w3.org/1999/xlink" x="0px" y="0px"
	 viewBox="0 0 841.9 595.3" enable-background="new 0 0 841.9 595.3" xml:space="preserve">
<rect x="119.3" y="445.5" fill="#58595B" width="339.6" height="12"/>
<rect x="458.9" y="445.5" fill="#D1D3D4" width="279.7" height="12"/>
<g id="play_1_">
	<path id="play" fill="#6D6E71" d="M510.8,247.7L379,317.6c-4,2-4,0-4-2V175.8c0-2,2-4,4-2l131.8,69.9
		C512.8,243.7,510.8,245.7,510.8,247.7z"/>
</g>
<g>
	<path fill="#414042" d="M426.9,395.5c-81.9,0-149.8-67.9-149.8-149.8S345,95.9,426.9,95.9s149.8,67.9,149.8,149.8
		S510.8,395.5,426.9,395.5z M426.9,119.9c-69.9,0-125.8,55.9-125.8,125.8S357,371.6,426.9,371.6s125.8-55.9,125.8-125.8
		S496.9,119.9,426.9,119.9z"/>
</g>
<linearGradient id="SVGID_1_" gradientUnits="userSpaceOnUse" x1="15.0215" y1="568.48" x2="26.2441" y2="568.48" gradientTransform="matrix(19.9758 0 0 -19.9758 15.4355 11891.2188)">
	<stop  offset="0" style="stop-color:#47494C"/>
	<stop  offset="1" style="stop-color:#414345"/>
</linearGradient>
<rect x="315.1" y="503.4" fill="url(#SVGID_1_)" width="223.7" height="63.9"/>
<linearGradient id="SVGID_2_" gradientUnits="userSpaceOnUse" x1="8.7695" y1="566.58" x2="32.497" y2="566.58" gradientTransform="matrix(19.9758 0 0 -19.9758 15.4355 11891.2188)">
	<stop  offset="0" style="stop-color:#47494C"/>
	<stop  offset="1" style="stop-color:#414345"/>
</linearGradient>
<rect x="191.2" y="561.3" fill="url(#SVGID_2_)" width="473.4" height="24"/>
<linearGradient id="SVGID_3_" gradientUnits="userSpaceOnUse" x1="0" y1="580.38" x2="40.6" y2="580.38" gradientTransform="matrix(19.9758 0 0 -19.9758 15.4355 11891.2188)">
	<stop  offset="0" style="stop-color:#47494C"/>
	<stop  offset="1" style="stop-color:#414345"/>
</linearGradient>
<path fill="url(#SVGID_3_)" d="M826.5,545.3V0h-811v545.3h291.6v24H179.2v26h481.4v-26H534.8v-24H826.5z M53.4,38h737.1v471.4H53.4
	V38z"/>
</svg>
