<?xml version="1.0" encoding="UTF-8" standalone="no"?>
<svg width="363px" height="90px" viewBox="0 0 363 90" version="1.1" xmlns="http://www.w3.org/2000/svg" xmlns:xlink="http://www.w3.org/1999/xlink" xmlns:sketch="http://www.bohemiancoding.com/sketch/ns">
    <g id="Page-1" stroke="none" stroke-width="1" fill="none" fill-rule="evenodd" sketch:type="MSPage">
        <g id="Imported-Layers" sketch:type="MSLayerGroup">
            <path d="M0.219,14.424 L0.219,70.854 C0.221,74.669 2.451,78.312 6.198,79.957 L27.009,89.111 L47.821,79.957 C51.565,78.311 53.794,74.67 53.8,70.854 L53.8,14.424 L0.219,14.424" id="Fill-1" fill="#56778C" sketch:type="MSShapeGroup"></path>
            <path d="M49.813,33.778 C49.233,33.231 47.592,33.165 46.444,32.464 C45.296,31.763 43.905,30.33 40.389,30.043 C37.842,29.834 34.032,26.84 33.344,26.578 C32.658,26.315 31.221,25.397 31.881,28.653 C32.168,30.074 32.774,31.195 33.11,31.741 C33.077,31.716 33.046,31.69 33.008,31.666 C32.572,31.374 32.113,31.249 31.723,31.263 C31.608,30.873 31.285,30.452 30.811,30.137 C30.096,29.659 29.313,29.609 28.926,29.956 C28.781,29.506 28.223,29.084 27.488,28.929 C26.715,28.767 26.004,28.95 25.715,29.344 C25.445,28.977 24.838,28.721 24.131,28.731 C23.401,28.737 22.783,29.022 22.539,29.418 C22.197,29.177 21.654,29.056 21.064,29.126 C20.355,29.211 19.779,29.548 19.566,29.957 C19.185,29.832 18.671,29.844 18.154,30.03 C17.578,30.238 17.14,30.606 16.955,30.987 C16.574,30.651 15.789,30.693 15.068,31.122 C14.392,31.525 13.996,32.141 14.047,32.624 C13.66,32.671 13.223,32.867 12.836,33.222 C12.42,33.606 12.168,34.069 12.111,34.471 C11.658,34.48 11.103,34.816 10.697,35.381 C10.385,35.817 10.246,36.282 10.252,36.675 C9.805,36.767 9.32,37.212 9.031,37.855 C8.853,38.25 8.787,38.648 8.81,38.99 C8.429,39.16 8.052,39.56 7.812,40.096 C7.544,40.691 7.521,41.292 7.699,41.694 C7.523,41.883 7.361,42.118 7.238,42.392 C7.002,42.918 6.955,43.454 7.07,43.85 C6.564,45.647 6.168,47.627 5.869,49.823 C4.66,58.72 4.599,69.34 13.426,72.937 C19.803,75.538 25.237,70.905 24.727,66.148 C24.299,62.178 21.264,60.62 18.245,60.632 C15.987,60.64 13.374,62.975 13.71,65.843 C14.067,68.872 17.64,70.846 20.151,68.959 C21.737,67.768 21.616,65.22 20.315,64.049 C19.637,63.435 18.973,64.282 19.586,64.731 C20.158,65.148 20.524,65.918 20.326,66.941 C20.08,68.231 18.402,68.981 16.943,68.319 C15.865,67.829 14.757,66.319 15.474,64.409 C16.626,61.327 22.449,62.176 22.536,66.632 C22.604,69.985 17.833,72.193 14.198,69.829 C10.764,67.594 9.28,63.121 11.096,57.612 C11.526,56.308 12.553,53.317 16.854,51.725 C19.35,50.8 20.217,50.951 21.475,52.118 C23.12,53.647 24.022,54.634 26.008,55.391 C27.305,55.886 27.623,56.644 28.895,57.622 C29.821,58.337 31.86,58.664 31.436,55.742 C31.35,55.14 29.79,53.777 28.276,53.391 C27.225,53.126 26.977,52.348 26.514,51.981 C24.707,50.547 24.325,49.228 24.551,49.168 C27.594,48.371 29.531,46.412 29.93,46.491 C30.157,46.536 30.483,48.696 35.321,49.384 C36.118,49.497 37.235,49.405 38.874,49.922 C40.936,50.571 42.493,50.758 42.436,49.461 C42.401,48.73 42.489,48.124 42.084,47.797 C41.68,47.471 39.941,46.449 38.496,46.696 C33.984,47.467 33.885,44.291 33.791,44.067 C33.793,44.066 36.756,44.318 41.27,42.043 C43.395,40.971 48.104,38.234 48.104,38.234 C48.104,38.234 49.043,37.878 49.528,37.082 C49.908,36.457 50.391,34.326 49.813,33.778" id="Fill-2" fill="#FF7F00" sketch:type="MSShapeGroup"></path>
            <path d="M15.076,14.939 L39.004,14.939 L39.004,16.709 L15.076,16.709 L15.076,14.939 Z" id="Fill-3" fill="#56778C" sketch:type="MSShapeGroup"></path>
            <path d="M32.914,6.092 L31.826,6.092 C31.826,6.092 31.234,7.043 29.658,7.961 C29.24,8.207 27.693,5.005 27.693,5.005 L26.605,5.005 C26.605,5.005 25.06,8.212 24.636,7.966 C23.064,7.049 22.472,6.092 22.472,6.092 L21.384,6.092 C16.956,11.803 14.857,4.787 14.857,4.787 L13.988,4.787 C14.092,8.411 15.076,12.912 15.076,12.912 L39.224,12.912 C39.224,12.912 40.208,8.411 40.31,4.787 L39.441,4.787 C39.444,4.787 37.34,11.803 32.914,6.092" id="Fill-4" fill="#56778C" sketch:type="MSShapeGroup"></path>
            <path d="M14.203,1.525 C14.804,1.525 15.29,2.012 15.29,2.612 C15.29,3.212 14.804,3.699 14.203,3.699 C13.603,3.699 13.116,3.212 13.116,2.612 C13.116,2.012 13.603,1.525 14.203,1.525" id="Fill-5" fill="#999999" sketch:type="MSShapeGroup"></path>
            <path d="M21.821,2.177 C22.542,2.177 23.126,2.762 23.126,3.482 C23.126,4.203 22.542,4.787 21.821,4.787 C21.101,4.787 20.516,4.203 20.516,3.482 C20.516,2.762 21.101,2.177 21.821,2.177" id="Fill-6" fill="#999999" sketch:type="MSShapeGroup"></path>
            <path d="M27.129,0.303 C28.022,0.303 28.746,1.027 28.746,1.92 C28.746,2.813 28.022,3.537 27.129,3.537 C26.236,3.537 25.512,2.813 25.512,1.92 C25.512,1.027 26.236,0.303 27.129,0.303" id="Fill-7" fill="#56778C" sketch:type="MSShapeGroup"></path>
            <path d="M32.483,2.177 C33.204,2.177 33.788,2.762 33.788,3.482 C33.788,4.203 33.204,4.787 32.483,4.787 C31.763,4.787 31.178,4.203 31.178,3.482 C31.178,2.762 31.763,2.177 32.483,2.177" id="Fill-8" fill="#999999" sketch:type="MSShapeGroup"></path>
            <path d="M40.094,1.525 C40.694,1.525 41.181,2.012 41.181,2.612 C41.181,3.212 40.694,3.699 40.094,3.699 C39.494,3.699 39.007,3.212 39.007,2.612 C39.007,2.012 39.494,1.525 40.094,1.525" id="Fill-9" fill="#999999" sketch:type="MSShapeGroup"></path>
            <path d="M14.203,1.525 C14.804,1.525 15.29,2.012 15.29,2.612 C15.29,3.212 14.804,3.699 14.203,3.699 C13.603,3.699 13.116,3.212 13.116,2.612 C13.116,2.012 13.603,1.525 14.203,1.525" id="Fill-10" fill="#56778C" sketch:type="MSShapeGroup"></path>
            <path d="M21.821,2.177 C22.542,2.177 23.126,2.762 23.126,3.482 C23.126,4.203 22.542,4.787 21.821,4.787 C21.101,4.787 20.516,4.203 20.516,3.482 C20.516,2.762 21.101,2.177 21.821,2.177" id="Fill-11" fill="#56778C" sketch:type="MSShapeGroup"></path>
            <path d="M32.483,2.177 C33.204,2.177 33.788,2.762 33.788,3.482 C33.788,4.203 33.204,4.787 32.483,4.787 C31.763,4.787 31.178,4.203 31.178,3.482 C31.178,2.762 31.763,2.177 32.483,2.177" id="Fill-12" fill="#56778C" sketch:type="MSShapeGroup"></path>
            <path d="M40.094,1.525 C40.694,1.525 41.181,2.012 41.181,2.612 C41.181,3.212 40.694,3.699 40.094,3.699 C39.494,3.699 39.007,3.212 39.007,2.612 C39.007,2.012 39.494,1.525 40.094,1.525" id="Fill-13" fill="#56778C" sketch:type="MSShapeGroup"></path>
            <path d="M40.741,35.028 C39.927,35.04 39.261,34.403 39.278,33.631 C39.296,32.923 39.964,32.277 40.692,32.263 C41.462,32.248 42.178,32.94 42.165,33.683 C42.147,34.402 41.496,35.018 40.741,35.028" id="Fill-14" fill="#FFFFFF" sketch:type="MSShapeGroup"></path>
            <path d="M40.844,34.284 C40.516,34.288 40.246,34.032 40.254,33.719 C40.26,33.435 40.529,33.172 40.824,33.166 C41.136,33.16 41.426,33.44 41.42,33.74 C41.412,34.031 41.153,34.28 40.844,34.284" id="Fill-15" fill="#3E4F5E" sketch:type="MSShapeGroup"></path>
            <path d="M41.33,33.998 C41.17,33.999 41.039,33.874 41.043,33.724 C41.047,33.584 41.178,33.457 41.32,33.454 C41.472,33.451 41.613,33.587 41.609,33.733 C41.61,33.874 41.481,33.995 41.33,33.998" id="Fill-16" fill="#FFFFFF" sketch:type="MSShapeGroup"></path>
            <path d="M72.676,66.08 C72.676,65.21 72.987,64.402 73.576,63.687 C71.837,62.6 70.967,60.954 70.967,58.872 C70.967,55.424 72.924,52.752 77.305,52.752 C78.237,52.752 79.387,52.907 80.287,52.907 C81.809,52.907 83.642,52.783 85.725,52.441 L86.036,54.864 C84.917,55.113 83.799,55.237 82.681,55.392 C83.426,56.386 83.829,57.691 83.829,58.871 C83.829,62.288 81.749,64.649 77.431,64.649 C76.809,64.649 76.281,64.618 75.753,64.494 C75.597,64.805 75.534,65.115 75.534,65.427 C75.534,65.799 75.628,66.172 75.814,66.545 L80.288,66.545 C83.675,66.545 85.632,68.223 85.632,70.77 C85.632,74.343 82.432,76.642 77.4,76.642 C72.988,76.642 70.41,75.057 70.41,72.2 C70.41,70.584 71.558,69.186 73.672,68.285 C72.955,67.695 72.676,66.919 72.676,66.08 L72.676,66.08 Z M75.907,69.839 C74.727,70.212 74.229,71.02 74.229,71.765 C74.229,72.977 75.845,73.35 77.802,73.35 C80.35,73.35 81.748,72.666 81.748,71.206 C81.748,70.398 81.281,69.839 79.23,69.839 L75.907,69.839 L75.907,69.839 Z M75.069,58.903 C75.069,60.581 75.969,61.388 77.43,61.388 C78.858,61.388 79.852,60.58 79.852,58.903 C79.852,57.226 79.387,55.952 77.43,55.952 C75.658,55.952 75.069,57.101 75.069,58.903 L75.069,58.903 Z" id="Fill-17" fill="#56778C" sketch:type="MSShapeGroup"></path>
            <path d="M91.16,61.606 L91.16,62.009 C91.16,64.805 93.056,66.017 95.635,66.017 C97.095,66.017 98.897,65.799 100.201,65.365 L100.543,68.595 C98.71,69.123 96.814,69.434 95.075,69.434 C90.539,69.434 86.904,67.259 86.904,60.642 C86.904,56.541 89.049,52.783 94.423,52.783 C99.207,52.783 101.009,55.424 101.009,58.841 C101.009,59.711 100.885,60.643 100.668,61.607 L91.16,61.607 L91.16,61.606 L91.16,61.606 Z M94.547,55.858 C91.813,55.858 91.317,58.157 91.285,59.089 L97.374,59.089 C97.374,57.226 96.504,55.858 94.547,55.858 L94.547,55.858 Z" id="Fill-18" fill="#56778C" sketch:type="MSShapeGroup"></path>
            <path d="M103.651,54.678 C105.048,54.026 108.28,52.721 111.635,52.721 C113.374,52.721 115.021,52.97 116.201,53.964 C117.722,53.312 119.68,52.721 122.01,52.721 C125.149,52.721 127.696,54.026 127.696,58.283 L127.696,69.001 L123.378,69.001 L123.378,58.748 C123.378,56.728 122.322,56.045 120.831,56.045 C119.868,56.045 118.78,56.263 117.693,56.791 C117.755,57.257 117.817,57.754 117.817,58.282 L117.817,69 L113.561,69 L113.561,58.748 C113.561,56.542 112.349,56.045 110.889,56.045 C109.832,56.045 108.869,56.263 107.969,56.729 L107.969,69 L103.651,69 L103.651,54.678" id="Fill-19" fill="#56778C" sketch:type="MSShapeGroup"></path>
            <path d="M134.532,61.606 L134.532,62.009 C134.532,64.805 136.427,66.017 139.005,66.017 C140.466,66.017 142.268,65.799 143.572,65.365 L143.914,68.595 C142.081,69.123 140.186,69.434 138.446,69.434 C133.911,69.434 130.276,67.259 130.276,60.642 C130.276,56.541 132.419,52.783 137.794,52.783 C142.578,52.783 144.38,55.424 144.38,58.841 C144.38,59.711 144.256,60.643 144.038,61.607 L134.532,61.607 L134.532,61.606 L134.532,61.606 Z M137.917,55.858 C135.184,55.858 134.686,58.157 134.655,59.089 L140.744,59.089 C140.744,57.226 139.875,55.858 137.917,55.858 L137.917,55.858 Z" id="Fill-20" fill="#56778C" sketch:type="MSShapeGroup"></path>
            <path d="M150.655,61.606 L150.655,62.009 C150.655,64.805 152.55,66.017 155.129,66.017 C156.589,66.017 158.392,65.799 159.696,65.365 L160.038,68.595 C158.204,69.123 156.309,69.434 154.569,69.434 C150.034,69.434 146.399,67.259 146.399,60.642 C146.399,56.541 148.543,52.783 153.917,52.783 C158.702,52.783 160.503,55.424 160.503,58.841 C160.503,59.711 160.38,60.643 160.161,61.607 L150.655,61.607 L150.655,61.606 L150.655,61.606 Z M154.041,55.858 C151.307,55.858 150.81,58.157 150.779,59.089 L156.867,59.089 C156.867,57.226 155.998,55.858 154.041,55.858 L154.041,55.858 Z" id="Fill-21" fill="#56778C" sketch:type="MSShapeGroup"></path>
            <path d="M163.144,54.554 C164.541,53.933 167.959,52.721 171.315,52.721 C174.545,52.721 177.559,53.622 177.559,58.283 L177.559,69.001 L173.241,69.001 L173.241,58.654 C173.241,56.542 172.092,55.952 170.632,55.952 C169.575,55.952 168.271,56.169 167.463,56.636 L167.463,69 L163.145,69 L163.145,54.554 L163.144,54.554" id="Fill-22" fill="#56778C" sketch:type="MSShapeGroup"></path>
            <path d="M182.374,56.076 L179.578,56.076 L179.578,53.094 L182.467,53.094 L182.467,49.459 L186.848,49.086 L186.848,53.063 L191.383,53.063 L191.135,56.077 L186.817,56.077 L186.817,64.278 C186.817,65.428 187.096,65.956 188.153,65.956 C188.557,65.956 189.458,65.895 190.328,65.677 L190.795,68.753 C189.428,69.343 187.812,69.405 187.283,69.405 C182.375,69.405 182.375,66.547 182.375,63.875 L182.375,56.076 L182.374,56.076" id="Fill-23" fill="#56778C" sketch:type="MSShapeGroup"></path>
            <path d="M196.852,61.606 L196.852,62.009 C196.852,64.805 198.747,66.017 201.325,66.017 C202.786,66.017 204.588,65.799 205.893,65.365 L206.234,68.595 C204.401,69.123 202.506,69.434 200.766,69.434 C196.231,69.434 192.596,67.259 192.596,60.642 C192.596,56.541 194.739,52.783 200.114,52.783 C204.898,52.783 206.7,55.424 206.7,58.841 C206.7,59.711 206.576,60.643 206.358,61.607 L196.852,61.607 L196.852,61.606 L196.852,61.606 Z M200.238,55.858 C197.506,55.858 197.008,58.157 196.977,59.089 L203.065,59.089 C203.065,57.226 202.196,55.858 200.238,55.858 L200.238,55.858 Z" id="Fill-24" fill="#56778C" sketch:type="MSShapeGroup"></path>
            <path d="M209.34,54.554 C210.738,53.933 214.155,52.721 217.51,52.721 C220.742,52.721 223.756,53.622 223.756,58.283 L223.756,69.001 L219.437,69.001 L219.437,58.654 C219.437,56.542 218.288,55.952 216.828,55.952 C215.772,55.952 214.467,56.169 213.659,56.636 L213.659,69 L209.342,69 L209.342,54.554 L209.34,54.554" id="Fill-25" fill="#56778C" sketch:type="MSShapeGroup"></path>
            <path d="M73.061,19.949 C75.142,19.701 77.192,19.546 78.808,19.546 C85.176,19.546 89.091,21.845 89.091,30.17 C89.091,38.651 84.307,40.858 78.621,40.858 C76.912,40.858 74.986,40.609 73.06,40.33 L73.06,19.949 L73.061,19.949 L73.061,19.949 Z M75.825,38.248 C76.819,38.435 77.813,38.527 78.715,38.527 C82.94,38.527 86.139,36.321 86.139,30.139 C86.139,24.391 83.81,21.719 78.869,21.719 C77.969,21.719 76.912,21.781 75.825,21.906 L75.825,38.248 L75.825,38.248 Z" id="Fill-26" fill="#56778C" sketch:type="MSShapeGroup"></path>
            <path d="M100.43,27.219 C99.747,27.065 99.125,27.032 98.753,27.032 C97.447,27.032 96.081,27.313 95.336,27.965 L95.336,40.516 L92.727,40.516 L92.727,24.92 L94.995,24.92 L95.212,26.411 C96.393,25.106 97.915,24.733 99.345,24.733 C99.717,24.733 100.214,24.764 100.773,24.888 L100.43,27.219" id="Fill-27" fill="#56778C" sketch:type="MSShapeGroup"></path>
            <path d="M115.621,39.801 C113.353,40.609 111.023,40.95 109.035,40.95 C105.93,40.95 103.07,39.894 103.07,35.358 L103.07,24.92 L105.679,24.92 L105.679,35.203 C105.679,38.03 107.326,38.807 109.843,38.807 C110.9,38.807 111.955,38.62 113.011,38.28 L113.011,24.92 L115.62,24.92 L115.62,39.801 L115.621,39.801" id="Fill-28" fill="#56778C" sketch:type="MSShapeGroup"></path>
            <path d="M125.719,41.106 C124.569,41.106 123.389,40.826 122.395,40.515 L122.395,47.319 L119.817,47.319 L119.817,25.851 C122.053,25.106 124.415,24.64 126.496,24.64 C130.255,24.64 133.175,26.349 133.175,32.438 C133.174,37.005 131.496,41.106 125.719,41.106 L125.719,41.106 Z M122.395,38.217 C123.327,38.652 124.694,38.869 125.782,38.869 C129.323,38.869 130.441,35.918 130.441,32.47 C130.441,27.934 128.608,26.722 126.154,26.722 C125.005,26.722 123.731,26.909 122.395,27.344 L122.395,38.217 L122.395,38.217 Z" id="Fill-29" fill="#56778C" sketch:type="MSShapeGroup"></path>
            <path d="M147.807,39.832 C146.317,40.36 143.769,40.889 141.409,40.889 C138.581,40.889 135.63,39.832 135.63,36.477 C135.63,32.749 138.706,31.693 141.72,31.693 C142.993,31.693 144.204,31.911 145.167,32.19 L145.167,30.295 C145.167,28.12 144.608,26.877 141.905,26.877 C140.569,26.877 138.923,27.219 137.245,27.654 L136.749,25.666 C138.333,25.014 141.005,24.641 142.278,24.641 C146.286,24.641 147.807,26.38 147.807,30.17 L147.807,39.832 L147.807,39.832 Z M145.166,33.867 C144.359,33.619 143.365,33.464 142.402,33.464 C140.351,33.464 138.3,34.24 138.3,36.446 C138.3,38.527 140.32,38.931 142.06,38.931 C143.177,38.931 144.39,38.713 145.165,38.464 L145.165,33.867 L145.166,33.867 L145.166,33.867 Z" id="Fill-30" fill="#56778C" sketch:type="MSShapeGroup"></path>
            <path d="M154.176,18.768 L154.176,37.222 C154.176,38.371 154.736,38.744 155.574,38.744 C156.102,38.744 156.755,38.619 157.437,38.402 L157.749,40.39 C156.506,40.825 155.419,40.949 154.922,40.949 C151.598,40.949 151.504,38.464 151.504,37.408 L151.504,18.768 L154.176,18.768" id="Fill-31" fill="#56778C" sketch:type="MSShapeGroup"></path>
            <path d="M178.222,24.92 L172.879,40.516 L169.74,40.516 L164.428,24.92 L167.349,24.92 L171.326,37.751 L175.427,24.92 L178.222,24.92" id="Fill-32" fill="#56778C" sketch:type="MSShapeGroup"></path>
            <path d="M179.962,32.749 C179.962,26.722 182.727,24.547 187.045,24.547 C191.394,24.547 193.941,26.66 193.941,32.718 C193.941,38.745 191.176,40.95 186.889,40.95 C182.2,40.95 179.962,38.807 179.962,32.749 L179.962,32.749 Z M182.696,32.749 C182.696,37.315 184.219,38.838 186.952,38.838 C189.282,38.838 191.209,37.316 191.209,32.749 C191.209,27.778 189.562,26.66 186.983,26.66 C184.715,26.66 182.696,27.778 182.696,32.749 L182.696,32.749 Z" id="Fill-33" fill="#56778C" sketch:type="MSShapeGroup"></path>
            <path d="M196.801,32.749 C196.801,26.722 199.565,24.547 203.883,24.547 C208.233,24.547 210.78,26.66 210.78,32.718 C210.78,38.745 208.016,40.95 203.728,40.95 C199.037,40.95 196.801,38.807 196.801,32.749 L196.801,32.749 Z M199.534,32.749 C199.534,37.315 201.057,38.838 203.79,38.838 C206.12,38.838 208.047,37.316 208.047,32.749 C208.047,27.778 206.401,26.66 203.821,26.66 C201.553,26.66 199.534,27.778 199.534,32.749 L199.534,32.749 Z" id="Fill-34" fill="#56778C" sketch:type="MSShapeGroup"></path>
            <path d="M222.028,27.219 C221.344,27.065 220.723,27.032 220.35,27.032 C219.045,27.032 217.678,27.313 216.932,27.965 L216.932,40.516 L214.323,40.516 L214.323,24.92 L216.592,24.92 L216.809,26.411 C217.99,25.106 219.512,24.733 220.941,24.733 C221.315,24.733 221.81,24.764 222.37,24.888 L222.028,27.219" id="Fill-35" fill="#56778C" sketch:type="MSShapeGroup"></path>
            <path d="M242.448,60.129 C243.205,60.129 244.131,60.24 244.899,60.45 L244.662,61.473 C243.794,61.22 243.01,61.178 242.422,61.178 C240.965,61.178 239.508,62.019 239.508,64.932 C239.508,67.916 240.937,68.813 242.674,68.813 C243.121,68.813 243.598,68.756 244.073,68.646 L244.073,65.311 L245.221,65.311 L245.221,69.387 C244.31,69.681 243.387,69.863 242.532,69.863 C240.208,69.863 238.19,68.659 238.19,64.989 C238.19,61.151 240.362,60.129 242.448,60.129" id="Fill-36" fill="#56778C" sketch:type="MSShapeGroup"></path>
            <path d="M246.59,66.151 C246.59,64.289 247.542,62.496 249.727,62.496 C251.647,62.496 252.571,63.504 252.571,65.157 C252.571,65.493 252.53,65.844 252.46,66.235 L247.838,66.235 C247.838,68.169 248.776,68.882 250.387,68.882 C250.779,68.882 251.592,68.784 252.18,68.532 L252.333,69.499 C251.508,69.82 250.821,69.877 249.939,69.877 C247.641,69.878 246.59,68.56 246.59,66.151 L246.59,66.151 Z M247.865,65.311 L251.352,65.311 C251.367,65.227 251.367,65.143 251.367,65.059 C251.367,64.008 250.751,63.419 249.769,63.419 C248.284,63.42 247.879,64.835 247.865,65.311 L247.865,65.311 Z" id="Fill-37" fill="#56778C" sketch:type="MSShapeGroup"></path>
            <path d="M257.245,62.468 C257.959,62.468 258.633,62.608 259.08,63.084 C259.879,62.678 260.691,62.468 261.518,62.468 C262.932,62.468 263.969,62.916 263.969,64.822 L263.969,69.682 L262.807,69.682 L262.807,65.032 C262.807,63.716 262.203,63.477 261.266,63.477 C260.662,63.477 260.034,63.645 259.571,63.869 C259.655,64.136 259.682,64.458 259.682,64.822 L259.682,69.682 L258.52,69.682 L258.52,65.032 C258.52,63.716 257.918,63.477 256.978,63.477 C256.334,63.477 255.69,63.645 255.284,63.869 L255.284,69.682 L254.108,69.682 L254.108,63.21 C255.158,62.748 256.223,62.468 257.245,62.468" id="Fill-38" fill="#56778C" sketch:type="MSShapeGroup"></path>
            <path d="M270.84,69.373 C270.168,69.611 269.02,69.85 267.954,69.85 C266.68,69.85 265.35,69.373 265.35,67.861 C265.35,66.18 266.736,65.704 268.094,65.704 C268.668,65.704 269.215,65.803 269.649,65.929 L269.649,65.075 C269.649,64.095 269.397,63.534 268.178,63.534 C267.576,63.534 266.834,63.689 266.077,63.885 L265.853,62.989 C266.567,62.694 267.772,62.526 268.346,62.526 C270.153,62.526 270.84,63.311 270.84,65.02 L270.84,69.373 L270.84,69.373 Z M269.649,66.684 C269.286,66.573 268.838,66.502 268.403,66.502 C267.478,66.502 266.553,66.853 266.553,67.847 C266.553,68.785 267.465,68.967 268.248,68.967 C268.752,68.967 269.299,68.869 269.648,68.757 L269.648,66.684 L269.649,66.684 L269.649,66.684 Z" id="Fill-39" fill="#56778C" sketch:type="MSShapeGroup"></path>
            <path d="M277.504,69.373 C276.832,69.611 275.684,69.85 274.618,69.85 C273.344,69.85 272.014,69.373 272.014,67.861 C272.014,66.18 273.4,65.704 274.758,65.704 C275.332,65.704 275.879,65.803 276.312,65.929 L276.312,65.075 C276.312,64.095 276.06,63.534 274.842,63.534 C274.24,63.534 273.498,63.689 272.741,63.885 L272.518,62.989 C273.23,62.694 274.435,62.526 275.01,62.526 C276.817,62.526 277.503,63.311 277.503,65.02 L277.503,69.373 L277.504,69.373 L277.504,69.373 Z M276.312,66.684 C275.95,66.573 275.501,66.502 275.067,66.502 C274.143,66.502 273.217,66.853 273.217,67.847 C273.217,68.785 274.129,68.967 274.912,68.967 C275.416,68.967 275.963,68.869 276.312,68.757 L276.312,66.684 L276.312,66.684 Z" id="Fill-40" fill="#56778C" sketch:type="MSShapeGroup"></path>
            <path d="M280.33,65.255 L281.227,65.255 L283.244,62.65 L284.7,62.65 L282.221,65.718 L285.205,69.682 L283.734,69.682 L281.213,66.25 L280.33,66.25 L280.33,69.682 L279.153,69.682 L279.153,60.045 L280.33,59.849 L280.33,65.255" id="Fill-41" fill="#56778C" sketch:type="MSShapeGroup"></path>
            <path d="M289.866,69.542 C289.277,69.752 288.941,69.821 288.435,69.821 C286.868,69.821 286.532,69.275 286.532,67.875 L286.532,63.588 L285.579,63.588 L285.579,62.65 L286.532,62.65 L286.532,60.717 L287.723,60.717 L287.723,62.65 L290.047,62.65 L289.865,63.588 L287.707,63.588 L287.707,68.015 C287.707,68.492 287.723,68.883 288.478,68.883 C288.772,68.883 289.123,68.856 289.682,68.659 L289.866,69.542" id="Fill-42" fill="#56778C" sketch:type="MSShapeGroup"></path>
            <path d="M293.825,66.18 C293.825,63.462 295.072,62.482 297.019,62.482 C298.98,62.482 300.128,63.435 300.128,66.167 C300.128,68.884 298.881,69.879 296.948,69.879 C294.833,69.878 293.825,68.911 293.825,66.18 L293.825,66.18 Z M295.058,66.18 C295.058,68.24 295.745,68.925 296.978,68.925 C298.028,68.925 298.895,68.239 298.895,66.18 C298.895,63.94 298.153,63.435 296.991,63.435 C295.968,63.434 295.058,63.938 295.058,66.18 L295.058,66.18 Z" id="Fill-43" fill="#56778C" sketch:type="MSShapeGroup"></path>
            <path d="M304.859,62.468 C305.573,62.468 306.246,62.608 306.694,63.084 C307.493,62.678 308.305,62.468 309.132,62.468 C310.546,62.468 311.583,62.916 311.583,64.822 L311.583,69.682 L310.421,69.682 L310.421,65.032 C310.421,63.716 309.817,63.477 308.88,63.477 C308.276,63.477 307.648,63.645 307.185,63.869 C307.27,64.136 307.296,64.458 307.296,64.822 L307.296,69.682 L306.134,69.682 L306.134,65.032 C306.134,63.716 305.532,63.477 304.593,63.477 C303.948,63.477 303.305,63.645 302.898,63.869 L302.898,69.682 L301.723,69.682 L301.723,63.21 C302.772,62.748 303.836,62.468 304.859,62.468" id="Fill-44" fill="#56778C" sketch:type="MSShapeGroup"></path>
            <path d="M319.713,69.542 C319.124,69.752 318.788,69.821 318.283,69.821 C316.715,69.821 316.379,69.275 316.379,67.875 L316.379,63.588 L315.426,63.588 L315.426,62.65 L316.379,62.65 L316.379,60.717 L317.569,60.717 L317.569,62.65 L319.894,62.65 L319.712,63.588 L317.555,63.588 L317.555,68.015 C317.555,68.492 317.569,68.883 318.325,68.883 C318.618,68.883 318.971,68.856 319.529,68.659 L319.713,69.542" id="Fill-45" fill="#56778C" sketch:type="MSShapeGroup"></path>
            <path d="M320.635,66.151 C320.635,64.289 321.587,62.496 323.772,62.496 C325.692,62.496 326.616,63.504 326.616,65.157 C326.616,65.493 326.575,65.844 326.505,66.235 L321.882,66.235 C321.882,68.169 322.821,68.882 324.433,68.882 C324.824,68.882 325.636,68.784 326.226,68.532 L326.378,69.499 C325.552,69.82 324.866,69.877 323.983,69.877 C321.686,69.878 320.635,68.56 320.635,66.151 L320.635,66.151 Z M321.909,65.311 L325.396,65.311 C325.411,65.227 325.411,65.143 325.411,65.059 C325.411,64.008 324.795,63.419 323.815,63.419 C322.329,63.42 321.924,64.835 321.909,65.311 L321.909,65.311 Z" id="Fill-46" fill="#56778C" sketch:type="MSShapeGroup"></path>
            <path d="M334.063,62.481 C334.581,62.481 335.183,62.538 335.702,62.706 L335.702,59.708 L336.864,59.708 L336.864,69.5 C335.981,69.668 335.015,69.85 334.104,69.85 C332.311,69.85 330.785,69.163 330.785,66.418 C330.784,64.205 331.611,62.481 334.063,62.481 L334.063,62.481 Z M335.701,63.686 C335.182,63.503 334.678,63.434 334.258,63.434 C332.885,63.434 332.06,64.33 332.06,66.404 C332.06,68.211 332.997,68.94 334.356,68.94 C334.777,68.94 335.226,68.869 335.702,68.743 L335.702,63.686 L335.701,63.686 L335.701,63.686 Z" id="Fill-47" fill="#56778C" sketch:type="MSShapeGroup"></path>
            <path d="M338.414,66.151 C338.414,64.289 339.366,62.496 341.551,62.496 C343.472,62.496 344.396,63.504 344.396,65.157 C344.396,65.493 344.354,65.844 344.284,66.235 L339.661,66.235 C339.661,68.169 340.601,68.882 342.211,68.882 C342.603,68.882 343.415,68.784 344.004,68.532 L344.157,69.499 C343.331,69.82 342.646,69.877 341.763,69.877 C339.465,69.878 338.414,68.56 338.414,66.151 L338.414,66.151 Z M339.69,65.311 L343.176,65.311 C343.191,65.227 343.191,65.143 343.191,65.059 C343.191,64.008 342.575,63.419 341.594,63.419 C340.109,63.42 339.703,64.835 339.69,65.311 L339.69,65.311 Z" id="Fill-48" fill="#56778C" sketch:type="MSShapeGroup"></path>
            <path d="M347.151,59.876 L347.151,68.197 C347.151,68.715 347.403,68.883 347.782,68.883 C348.021,68.883 348.315,68.827 348.622,68.73 L348.764,69.626 C348.202,69.821 347.712,69.878 347.488,69.878 C345.99,69.878 345.947,68.757 345.947,68.281 L345.947,59.876 L347.151,59.876" id="Fill-49" fill="#56778C" sketch:type="MSShapeGroup"></path>
            <path d="M349.446,66.151 C349.446,64.289 350.399,62.496 352.584,62.496 C354.503,62.496 355.428,63.504 355.428,65.157 C355.428,65.493 355.386,65.844 355.316,66.235 L350.693,66.235 C350.693,68.169 351.632,68.882 353.244,68.882 C353.636,68.882 354.448,68.784 355.037,68.532 L355.19,69.499 C354.364,69.82 353.677,69.877 352.794,69.877 C350.496,69.878 349.446,68.56 349.446,66.151 L349.446,66.151 Z M350.721,65.311 L354.208,65.311 C354.224,65.227 354.224,65.143 354.224,65.059 C354.224,64.008 353.606,63.419 352.625,63.419 C351.142,63.42 350.735,64.835 350.721,65.311 L350.721,65.311 Z" id="Fill-50" fill="#56778C" sketch:type="MSShapeGroup"></path>
            <path d="M360.2,62.468 C361.657,62.468 362.694,62.874 362.694,64.864 L362.694,69.682 L361.531,69.682 L361.531,65.074 C361.531,63.729 360.901,63.463 360.074,63.463 C359.458,63.463 358.702,63.604 358.142,63.842 L358.142,69.683 L356.964,69.683 L356.964,63.211 C358,62.748 359.192,62.468 360.2,62.468" id="Fill-51" fill="#56778C" sketch:type="MSShapeGroup"></path>
            <path d="M72.676,66.08 C72.676,65.21 72.987,64.402 73.576,63.687 C71.837,62.6 70.967,60.954 70.967,58.872 C70.967,55.424 72.924,52.752 77.305,52.752 C78.237,52.752 79.387,52.907 80.287,52.907 C81.809,52.907 83.642,52.783 85.725,52.441 L86.036,54.864 C84.917,55.113 83.799,55.237 82.681,55.392 C83.426,56.386 83.829,57.691 83.829,58.871 C83.829,62.288 81.749,64.649 77.431,64.649 C76.809,64.649 76.281,64.618 75.753,64.494 C75.597,64.805 75.534,65.115 75.534,65.427 C75.534,65.799 75.628,66.172 75.814,66.545 L80.288,66.545 C83.675,66.545 85.632,68.223 85.632,70.77 C85.632,74.343 82.432,76.642 77.4,76.642 C72.988,76.642 70.41,75.057 70.41,72.2 C70.41,70.584 71.558,69.186 73.672,68.285 C72.955,67.695 72.676,66.919 72.676,66.08 L72.676,66.08 Z M75.907,69.839 C74.727,70.212 74.229,71.02 74.229,71.765 C74.229,72.977 75.845,73.35 77.802,73.35 C80.35,73.35 81.748,72.666 81.748,71.206 C81.748,70.398 81.281,69.839 79.23,69.839 L75.907,69.839 L75.907,69.839 Z M75.069,58.903 C75.069,60.581 75.969,61.388 77.43,61.388 C78.858,61.388 79.852,60.58 79.852,58.903 C79.852,57.226 79.387,55.952 77.43,55.952 C75.658,55.952 75.069,57.101 75.069,58.903 L75.069,58.903 Z" id="Fill-52" fill="#395E72" sketch:type="MSShapeGroup"></path>
            <path d="M91.16,61.606 L91.16,62.009 C91.16,64.805 93.056,66.017 95.635,66.017 C97.095,66.017 98.897,65.799 100.201,65.365 L100.543,68.595 C98.71,69.123 96.814,69.434 95.075,69.434 C90.539,69.434 86.904,67.259 86.904,60.642 C86.904,56.541 89.049,52.783 94.423,52.783 C99.207,52.783 101.009,55.424 101.009,58.841 C101.009,59.711 100.885,60.643 100.668,61.607 L91.16,61.607 L91.16,61.606 L91.16,61.606 Z M94.547,55.858 C91.813,55.858 91.317,58.157 91.285,59.089 L97.374,59.089 C97.374,57.226 96.504,55.858 94.547,55.858 L94.547,55.858 Z" id="Fill-53" fill="#395E72" sketch:type="MSShapeGroup"></path>
            <path d="M103.651,54.678 C105.048,54.026 108.28,52.721 111.635,52.721 C113.374,52.721 115.021,52.97 116.201,53.964 C117.722,53.312 119.68,52.721 122.01,52.721 C125.149,52.721 127.696,54.026 127.696,58.283 L127.696,69.001 L123.378,69.001 L123.378,58.748 C123.378,56.728 122.322,56.045 120.831,56.045 C119.868,56.045 118.78,56.263 117.693,56.791 C117.755,57.257 117.817,57.754 117.817,58.282 L117.817,69 L113.561,69 L113.561,58.748 C113.561,56.542 112.349,56.045 110.889,56.045 C109.832,56.045 108.869,56.263 107.969,56.729 L107.969,69 L103.651,69 L103.651,54.678" id="Fill-54" fill="#395E72" sketch:type="MSShapeGroup"></path>
            <path d="M134.532,61.606 L134.532,62.009 C134.532,64.805 136.427,66.017 139.005,66.017 C140.466,66.017 142.268,65.799 143.572,65.365 L143.914,68.595 C142.081,69.123 140.186,69.434 138.446,69.434 C133.911,69.434 130.276,67.259 130.276,60.642 C130.276,56.541 132.419,52.783 137.794,52.783 C142.578,52.783 144.38,55.424 144.38,58.841 C144.38,59.711 144.256,60.643 144.038,61.607 L134.532,61.607 L134.532,61.606 L134.532,61.606 Z M137.917,55.858 C135.184,55.858 134.686,58.157 134.655,59.089 L140.744,59.089 C140.744,57.226 139.875,55.858 137.917,55.858 L137.917,55.858 Z" id="Fill-55" fill="#395E72" sketch:type="MSShapeGroup"></path>
            <path d="M150.655,61.606 L150.655,62.009 C150.655,64.805 152.55,66.017 155.129,66.017 C156.589,66.017 158.392,65.799 159.696,65.365 L160.038,68.595 C158.204,69.123 156.309,69.434 154.569,69.434 C150.034,69.434 146.399,67.259 146.399,60.642 C146.399,56.541 148.543,52.783 153.917,52.783 C158.702,52.783 160.503,55.424 160.503,58.841 C160.503,59.711 160.38,60.643 160.161,61.607 L150.655,61.607 L150.655,61.606 L150.655,61.606 Z M154.041,55.858 C151.307,55.858 150.81,58.157 150.779,59.089 L156.867,59.089 C156.867,57.226 155.998,55.858 154.041,55.858 L154.041,55.858 Z" id="Fill-56" fill="#395E72" sketch:type="MSShapeGroup"></path>
            <path d="M163.144,54.554 C164.541,53.933 167.959,52.721 171.315,52.721 C174.545,52.721 177.559,53.622 177.559,58.283 L177.559,69.001 L173.241,69.001 L173.241,58.654 C173.241,56.542 172.092,55.952 170.632,55.952 C169.575,55.952 168.271,56.169 167.463,56.636 L167.463,69 L163.145,69 L163.145,54.554 L163.144,54.554" id="Fill-57" fill="#395E72" sketch:type="MSShapeGroup"></path>
            <path d="M182.374,56.076 L179.578,56.076 L179.578,53.094 L182.467,53.094 L182.467,49.459 L186.848,49.086 L186.848,53.063 L191.383,53.063 L191.135,56.077 L186.817,56.077 L186.817,64.278 C186.817,65.428 187.096,65.956 188.153,65.956 C188.557,65.956 189.458,65.895 190.328,65.677 L190.795,68.753 C189.428,69.343 187.812,69.405 187.283,69.405 C182.375,69.405 182.375,66.547 182.375,63.875 L182.375,56.076 L182.374,56.076" id="Fill-58" fill="#395E72" sketch:type="MSShapeGroup"></path>
            <path d="M196.852,61.606 L196.852,62.009 C196.852,64.805 198.747,66.017 201.325,66.017 C202.786,66.017 204.588,65.799 205.893,65.365 L206.234,68.595 C204.401,69.123 202.506,69.434 200.766,69.434 C196.231,69.434 192.596,67.259 192.596,60.642 C192.596,56.541 194.739,52.783 200.114,52.783 C204.898,52.783 206.7,55.424 206.7,58.841 C206.7,59.711 206.576,60.643 206.358,61.607 L196.852,61.607 L196.852,61.606 L196.852,61.606 Z M200.238,55.858 C197.506,55.858 197.008,58.157 196.977,59.089 L203.065,59.089 C203.065,57.226 202.196,55.858 200.238,55.858 L200.238,55.858 Z" id="Fill-59" fill="#395E72" sketch:type="MSShapeGroup"></path>
            <path d="M209.34,54.554 C210.738,53.933 214.155,52.721 217.51,52.721 C220.742,52.721 223.756,53.622 223.756,58.283 L223.756,69.001 L219.437,69.001 L219.437,58.654 C219.437,56.542 218.288,55.952 216.828,55.952 C215.772,55.952 214.467,56.169 213.659,56.636 L213.659,69 L209.342,69 L209.342,54.554 L209.34,54.554" id="Fill-60" fill="#395E72" sketch:type="MSShapeGroup"></path>
            <path d="M27.032,14.424 L27.032,89.101 L27.009,89.111 L6.198,79.957 C2.454,78.311 0.221,74.67 0.219,70.854 L0.219,14.424 L27.032,14.424" id="Fill-61" fill="#395E72" sketch:type="MSShapeGroup"></path>
            <path d="M49.813,33.778 C49.233,33.231 47.592,33.165 46.444,32.464 C45.296,31.763 43.905,30.33 40.389,30.043 C37.842,29.834 34.032,26.84 33.344,26.578 C32.658,26.315 31.221,25.397 31.881,28.653 C32.168,30.074 32.774,31.195 33.11,31.741 C33.077,31.716 33.046,31.69 33.008,31.666 C32.572,31.374 32.113,31.249 31.723,31.263 C31.608,30.873 31.285,30.452 30.811,30.137 C30.096,29.659 29.313,29.609 28.926,29.956 C28.781,29.506 28.223,29.084 27.488,28.929 C26.715,28.767 26.004,28.95 25.715,29.344 C25.445,28.977 24.838,28.721 24.131,28.731 C23.401,28.737 22.783,29.022 22.539,29.418 C22.197,29.177 21.654,29.056 21.064,29.126 C20.355,29.211 19.779,29.548 19.566,29.957 C19.185,29.832 18.671,29.844 18.154,30.03 C17.578,30.238 17.14,30.606 16.955,30.987 C16.574,30.651 15.789,30.693 15.068,31.122 C14.392,31.525 13.996,32.141 14.047,32.624 C13.66,32.671 13.223,32.867 12.836,33.222 C12.42,33.606 12.168,34.069 12.111,34.471 C11.658,34.48 11.103,34.816 10.697,35.381 C10.385,35.817 10.246,36.282 10.252,36.675 C9.805,36.767 9.32,37.212 9.031,37.855 C8.853,38.25 8.787,38.648 8.81,38.99 C8.429,39.16 8.052,39.56 7.812,40.096 C7.544,40.691 7.521,41.292 7.699,41.694 C7.523,41.883 7.361,42.118 7.238,42.392 C7.002,42.918 6.955,43.454 7.07,43.85 C6.564,45.647 6.168,47.627 5.869,49.823 C4.66,58.72 4.599,69.34 13.426,72.937 C19.803,75.538 25.237,70.905 24.727,66.148 C24.299,62.178 21.264,60.62 18.245,60.632 C15.987,60.64 13.374,62.975 13.71,65.843 C14.067,68.872 17.64,70.846 20.151,68.959 C21.737,67.768 21.616,65.22 20.315,64.049 C19.637,63.435 18.973,64.282 19.586,64.731 C20.158,65.148 20.524,65.918 20.326,66.941 C20.08,68.231 18.402,68.981 16.943,68.319 C15.865,67.829 14.757,66.319 15.474,64.409 C16.626,61.327 22.449,62.176 22.536,66.632 C22.604,69.985 17.833,72.193 14.198,69.829 C10.764,67.594 9.28,63.121 11.096,57.612 C11.526,56.308 12.553,53.317 16.854,51.725 C19.35,50.8 20.217,50.951 21.475,52.118 C23.12,53.647 24.022,54.634 26.008,55.391 C27.305,55.886 27.623,56.644 28.895,57.622 C29.821,58.337 31.86,58.664 31.436,55.742 C31.35,55.14 29.79,53.777 28.276,53.391 C27.225,53.126 26.977,52.348 26.514,51.981 C24.707,50.547 24.325,49.228 24.551,49.168 C27.594,48.371 29.531,46.412 29.93,46.491 C30.157,46.536 30.483,48.696 35.321,49.384 C36.118,49.497 37.235,49.405 38.874,49.922 C40.936,50.571 42.493,50.758 42.436,49.461 C42.401,48.73 42.489,48.124 42.084,47.797 C41.68,47.471 39.941,46.449 38.496,46.696 C33.984,47.467 33.885,44.291 33.791,44.067 C33.793,44.066 36.756,44.318 41.27,42.043 C43.395,40.971 48.104,38.234 48.104,38.234 C48.104,38.234 49.043,37.878 49.528,37.082 C49.908,36.457 50.391,34.326 49.813,33.778 L49.813,33.778 Z" id="Stroke-62" stroke="#FFFFFF" stroke-width="0.85" sketch:type="MSShapeGroup"></path>
        </g>
    </g>
</svg>