<?xml version="1.0" encoding="utf-8"?>
<!-- Generator: Adobe Illustrator 16.0.0, SVG Export Plug-In . SVG Version: 6.00 Build 0)  -->
<!DOCTYPE svg PUBLIC "-//W3C//DTD SVG 1.1//EN" "http://www.w3.org/Graphics/SVG/1.1/DTD/svg11.dtd">
<svg version="1.1" id="sprite-s38019cb0aa_xA0_Image_1_"
	 xmlns="http://www.w3.org/2000/svg" xmlns:xlink="http://www.w3.org/1999/xlink" x="0px" y="0px" width="27px" height="239px"
	 viewBox="0 0 27 239" enable-background="new 0 0 27 239" xml:space="preserve">
<rect x="11.457" y="-1.076" transform="matrix(0.7069 0.7073 -0.7073 0.7069 12.1596 -5.4647)" fill="#E30513" width="2.434" height="26.032"/>
<rect x="11.456" y="-1.076" transform="matrix(-0.7073 0.7069 -0.7069 -0.7073 30.0779 11.4267)" fill="#E30513" width="2.434" height="26.032"/>
<rect x="7.475" y="172.251" transform="matrix(0.7071 0.7071 -0.7071 0.7071 130.4626 47.1644)" fill="#E30513" width="1.648" height="17.627"/>
<rect x="7.475" y="172.252" transform="matrix(-0.7077 0.7065 -0.7065 -0.7077 142.0959 303.3416)" fill="#E30513" width="1.648" height="17.625"/>
<rect x="16.049" y="33.115" transform="matrix(0.7727 0.6348 -0.6348 0.7727 31.8049 -0.9764)" fill="#009640" width="2.434" height="21.605"/>
<rect x="5.785" y="41.297" transform="matrix(0.6348 -0.7727 0.7727 0.6348 -34.4604 22.9053)" fill="#009640" width="2.434" height="13.224"/>
<text transform="matrix(1 0 0 1 0 76.498)" fill="#007631" font-family="'ArialMT'" font-size="21.552">›</text>
<text transform="matrix(1 0 0 1 0 141.4355)" fill="#007631" font-family="'ArialMT'" font-size="21.552">›</text>
<text transform="matrix(-1 0 0 -1 7.1763 226.4395)" fill="#007631" font-family="'ArialMT'" font-size="21.552">›</text>
<text transform="matrix(1 0 0 1 0 101.498)" fill="#004E23" font-family="'ArialMT'" font-size="21.552">›</text>
<text transform="matrix(-4.371139e-08 1 -1 -4.371139e-08 4.3394 118.0366)" fill="#007631" font-family="'ArialMT'" font-size="21.552">›</text>
<rect x="12.166" y="200.077" transform="matrix(0.7731 0.6343 -0.6343 0.7731 134.7246 38.8759)" fill="#009640" width="1.724" height="15.31"/>
<rect x="4.893" y="205.875" transform="matrix(0.6349 -0.7726 0.7726 0.6349 -160.5712 81.315)" fill="#009640" width="1.724" height="9.371"/>
</svg>
