<?xml version="1.0" encoding="UTF-8" standalone="no"?>
<svg width="1140px" height="360px" viewBox="0 0 1140 360" version="1.1" xmlns="http://www.w3.org/2000/svg" xmlns:xlink="http://www.w3.org/1999/xlink" xmlns:sketch="http://www.bohemiancoding.com/sketch/ns">
    <!-- Generator: Sketch 3.0.3 (7891) - http://www.bohemiancoding.com/sketch -->
    <title>Slice 1</title>
    <desc>Created with Sketch.</desc>
    <defs></defs>
    <g id="Page-1" stroke="none" stroke-width="1" fill="none" fill-rule="evenodd" sketch:type="MSPage">
        <g id="aegir_logo_horizontal" sketch:type="MSLayerGroup" fill="#E3F6F7">
            <g id="layer1" sketch:type="MSShapeGroup">
                <g id="g5843" transform="translate(-3.458322, -3.178651)">
                    <g id="g5809" transform="translate(-2.058333, 2.944361)">
                        <path d="M514.269522,360.46739 L1.56318792,360.46739 L136.419747,0.263011573 C177.316529,0.263011573 32.4182904,231.140136 252.29829,275.800885 C490.490154,324.181015 514.269522,332.621699 514.269522,360.46739 L514.269522,360.46739 Z" id="path5801"></path>
                        <path d="M136.145564,108.868633 C136.145564,108.868633 127.750178,203.264023 303.878148,211.416883 C427.585936,217.114793 462.881396,219.858875 462.881396,219.858875 L492.567352,296.440733 C492.567352,296.440733 490.368659,291.825077 286.15402,264.397695 C107.808053,240.444652 136.145564,108.868633 136.145564,108.868633 L136.145564,108.868633 Z" id="path5803"></path>
                        <path d="M145.356082,80.222689 C163.657367,170.99971 326.078295,176.751573 320.343807,75.1226507 C316.457813,6.25297774 243.192582,13.4198648 259.861206,50.5757754 L231.896687,37.3562709 C243.82187,-0.0238863754 351.554343,-30.4432687 402.241527,71.7095135 C452.92871,173.862272 449.913905,186.491628 449.913905,186.491628 C449.913905,186.491628 407.218033,186.641364 266.707474,185.124876 C126.203131,183.608388 145.356082,80.222689 145.356082,80.222689 L145.356082,80.222689 Z" id="path5805"></path>
                        <path d="M283.138343,51.0900285 C283.138343,68.0870102 270.492982,81.8658089 254.894163,81.8658089 C239.295345,81.8658089 226.649984,68.0870102 226.649984,51.0900285 C226.649984,34.0930468 239.295345,20.3142481 254.894163,20.3142481 C270.492982,20.3142481 283.138343,34.0930468 283.138343,51.0900285 L283.138343,51.0900285 Z" id="path5807"></path>
                    </g>
                </g>
                <path d="M683.870849,125.683729 C604.967919,158.33138 605.019108,275.69138 605.019108,275.69138 L639.259707,275.742808 L642.633666,243.628604 L696.855449,243.555135 L696.855449,275.726571 L811.372715,275.726571 C811.372715,275.726571 795.711689,261.721249 795.711689,244.898008 L731.572862,244.898008 L731.572862,212.963584 L795.495089,212.963584 L795.495089,187.134539 L731.572862,187.134539 L731.572862,153.888171 L795.495089,153.888171 C795.495089,138.435796 811.543347,125.683435 811.543347,125.683435 L683.870849,125.683435 L683.870849,125.683729 Z M872.213338,124.207949 C838.593267,124.207876 818.205066,149.853306 818.205066,182.093437 L818.205066,220.629086 C818.205066,251.861657 839.609853,277.694669 871.884724,277.694669 C888.358459,277.694669 903.487215,270.286678 913.909022,257.524971 C913.909022,262.226498 914.237783,267.253567 914.237783,271.955314 C914.237121,295.127927 902.828957,311.638849 878.28667,311.638849 C863.494397,311.638922 855.853455,305.159584 846.440071,294.748824 L821.816659,315.574457 C836.27311,332.030278 856.098298,341.483584 878.28667,341.483584 C902.493062,341.48351 924.116067,329.993045 936.891054,309.507135 C944.623711,297.081257 945.920075,289.019829 945.920075,274.57898 L945.920075,126.339664 L913.909169,126.339664 L913.909169,144.049665 C902.478426,131.2879 889.358938,124.207949 872.213485,124.207949 L872.213338,124.207949 Z M1105.71902,124.207949 C1088.90947,124.207876 1074.78097,131.623802 1064.02327,144.049665 L1064.02327,126.339664 L1031.68382,126.339664 L1031.68382,275.726939 L1064.02327,275.726939 L1064.02327,189.472555 C1064.02327,170.665935 1077.52726,156.18431 1096.69074,156.18431 C1105.76757,156.18431 1110.80659,158.846033 1117.86679,164.219437 L1140.02787,136.34258 C1130.27859,128.282562 1118.15811,124.207949 1105.71902,124.207949 L1105.71902,124.207949 Z M972.550034,126.339664 L972.550034,275.726939 L1004.72517,275.726939 L1004.72517,126.339664 L972.550034,126.339664 L972.550034,126.339664 Z M696.824044,149.299714 L696.824044,218.289233 L646.451195,218.325967 C646.451195,218.325967 656.344556,166.052792 696.824044,149.303682 L696.824044,149.299714 Z M882.390964,156.18431 C900.545427,156.18431 913.909022,171.017412 913.909022,188.81662 L913.909022,210.790139 C913.909022,230.604318 903.234577,245.718294 882.390964,245.718294 C865.244849,245.718367 850.051517,231.697176 850.051517,214.233796 L850.051517,188.81662 C850.051517,170.681584 864.236574,156.18431 882.390964,156.18431 L882.390964,156.18431 Z" id="path5988"></path>
            </g>
        </g>
    </g>
</svg>